<svg width="248" height="148" viewBox="0 0 248 148" fill="none" xmlns="http://www.w3.org/2000/svg">
<path d="M69.8891 53.8221C69.8891 56.857 70.219 59.3177 70.7964 61.1222C71.4562 62.9267 72.2811 64.8953 73.4358 67.0279C73.8482 67.6841 74.0132 68.3403 74.0132 68.9145C74.0132 69.7347 73.5183 70.555 72.446 71.3752L67.2496 74.8202C66.5073 75.3124 65.765 75.5585 65.1051 75.5585C64.2803 75.5585 63.4555 75.1483 62.6306 74.4101C61.4759 73.1798 60.4861 71.8674 59.6613 70.555C58.8364 69.1606 58.0116 67.6021 57.1043 65.7156C50.6707 73.2618 42.5874 77.0349 32.8545 77.0349C25.926 77.0349 20.3997 75.0663 16.3581 71.1292C12.3165 67.192 10.2544 61.9425 10.2544 55.3805C10.2544 48.4085 12.7289 42.7488 17.7603 38.4836C22.7917 34.2183 29.4728 32.0857 37.9684 32.0857C40.7728 32.0857 43.6597 32.3318 46.7116 32.7419C49.7634 33.152 52.8977 33.8082 56.197 34.5464V28.5587C56.197 22.3248 54.8773 17.9776 52.3203 15.4348C49.6809 12.8921 45.2269 11.6617 38.8757 11.6617C35.9889 11.6617 33.0195 11.9898 29.9677 12.728C26.9158 13.4662 23.9465 14.3685 21.0596 15.5168C19.7399 16.091 18.7501 16.4191 18.1727 16.5832C17.5953 16.7472 17.1829 16.8292 16.853 16.8292C15.6982 16.8292 15.1208 16.009 15.1208 14.2865V10.2673C15.1208 8.95492 15.2858 7.97064 15.6982 7.39647C16.1106 6.8223 16.853 6.24813 18.0077 5.67396C20.8946 4.19753 24.3589 2.96717 28.4005 1.98288C32.4421 0.916568 36.7312 0.424424 41.2677 0.424424C51.0831 0.424424 58.2591 2.63907 62.8781 7.06837C67.4146 11.4977 69.7241 18.2236 69.7241 27.2463V53.8221H69.8891ZM36.4013 66.2897C39.1232 66.2897 41.9276 65.7976 44.8969 64.8133C47.8663 63.829 50.5057 62.0245 52.7328 59.5638C54.0525 58.0053 55.0423 56.2828 55.5372 54.3142C56.0321 52.3456 56.362 49.9669 56.362 47.1781V43.7331C53.97 43.159 51.413 42.6668 48.7736 42.3387C46.1342 42.0106 43.5772 41.8466 41.0203 41.8466C35.494 41.8466 31.4523 42.9129 28.7304 45.1275C26.0085 47.3422 24.6888 50.4591 24.6888 54.5603C24.6888 58.4154 25.6786 61.2863 27.7406 63.2548C29.7202 65.3054 32.6071 66.2897 36.4013 66.2897V66.2897ZM102.635 75.1483C101.15 75.1483 100.16 74.9023 99.5002 74.3281C98.8403 73.8359 98.263 72.6876 97.7681 71.1292L78.3847 7.72456C77.8898 6.08408 77.6424 5.01777 77.6424 4.4436C77.6424 3.13122 78.3023 2.393 79.622 2.393H87.7052C89.2724 2.393 90.3447 2.63907 90.922 3.21324C91.5819 3.70539 92.0768 4.85372 92.5717 6.41218L106.429 60.7121L119.296 6.41218C119.708 4.7717 120.203 3.70539 120.863 3.21324C121.523 2.7211 122.678 2.393 124.162 2.393H130.761C132.328 2.393 133.4 2.63907 134.06 3.21324C134.72 3.70539 135.298 4.85372 135.627 6.41218L148.66 61.3683L162.929 6.41218C163.424 4.7717 164.001 3.70539 164.579 3.21324C165.239 2.7211 166.311 2.393 167.796 2.393H175.466C176.786 2.393 177.528 3.04919 177.528 4.4436C177.528 4.85372 177.446 5.26384 177.363 5.75599C177.281 6.24813 177.116 6.90432 176.786 7.80659L156.908 71.2112C156.413 72.8517 155.836 73.918 155.176 74.4101C154.516 74.9023 153.444 75.2304 152.041 75.2304H144.948C143.381 75.2304 142.308 74.9843 141.649 74.4101C140.989 73.8359 140.411 72.7696 140.081 71.1292L127.297 18.2236L114.594 71.0471C114.182 72.6876 113.687 73.7539 113.027 74.3281C112.367 74.9023 111.213 75.1483 109.728 75.1483H102.635ZM208.624 77.363C204.335 77.363 200.046 76.8708 195.922 75.8865C191.798 74.9023 188.581 73.8359 186.436 72.6056C185.117 71.8674 184.209 71.0471 183.88 70.3089C183.55 69.5707 183.385 68.7505 183.385 68.0122V63.829C183.385 62.1065 184.045 61.2863 185.282 61.2863C185.777 61.2863 186.272 61.3683 186.766 61.5323C187.261 61.6964 188.004 62.0245 188.828 62.3526C191.633 63.5829 194.685 64.5672 197.902 65.2234C201.201 65.8796 204.418 66.2077 207.717 66.2077C212.913 66.2077 216.955 65.3054 219.759 63.5009C222.564 61.6964 224.048 59.0716 224.048 55.7086C224.048 53.412 223.306 51.5254 221.821 49.9669C220.337 48.4085 217.532 47.0141 213.491 45.7017L201.531 42.0106C195.51 40.1241 191.056 37.3352 188.334 33.6442C185.612 30.0351 184.209 26.0159 184.209 21.7507C184.209 18.3057 184.952 15.2708 186.436 12.646C187.921 10.0212 189.901 7.72456 192.375 5.92004C194.85 4.03348 197.654 2.63907 200.953 1.65478C204.253 0.670496 207.717 0.260376 211.346 0.260376C213.161 0.260376 215.058 0.3424 216.872 0.588472C218.77 0.834544 220.502 1.16264 222.234 1.49074C223.883 1.90086 225.451 2.31098 226.935 2.80312C228.42 3.29527 229.575 3.78741 230.4 4.27955C231.554 4.93575 232.379 5.59194 232.874 6.33016C233.369 6.98635 233.616 7.88861 233.616 9.03695V12.8921C233.616 14.6146 232.956 15.5168 231.719 15.5168C231.059 15.5168 229.987 15.1888 228.585 14.5326C223.883 12.3999 218.605 11.3336 212.748 11.3336C208.047 11.3336 204.335 12.0718 201.778 13.6303C199.221 15.1888 197.902 17.5674 197.902 20.9304C197.902 23.2271 198.726 25.1957 200.376 26.7541C202.026 28.3126 205.077 29.8711 209.449 31.2655L221.162 34.9565C227.1 36.8431 231.389 39.4679 233.946 42.8309C236.503 46.1938 237.74 50.049 237.74 54.3142C237.74 57.8413 236.998 61.0402 235.596 63.829C234.111 66.6178 232.132 69.0786 229.575 71.0471C227.018 73.0977 223.966 74.5742 220.419 75.6405C216.707 76.7888 212.831 77.363 208.624 77.363V77.363Z" fill="white"/>
<path fill-rule="evenodd" clip-rule="evenodd" d="M224.213 117.227C197.076 137.158 157.65 147.74 123.75 147.74C76.2399 147.74 33.4317 130.268 1.09868 101.232C-1.45827 98.9352 0.85123 95.8183 3.90307 97.6228C38.8755 117.801 82.0137 130.022 126.637 130.022C156.743 130.022 189.818 123.789 220.254 110.993C224.79 108.942 228.667 113.946 224.213 117.227V117.227Z" fill="#FF9900"/>
<path fill-rule="evenodd" clip-rule="evenodd" d="M235.513 104.431C232.049 100.002 212.583 102.298 203.758 103.365C201.119 103.693 200.706 101.396 203.098 99.6735C218.605 88.8463 244.091 91.9632 247.061 95.5723C250.03 99.2634 246.236 124.609 231.719 136.748C229.492 138.635 227.348 137.651 228.337 135.19C231.637 127.07 238.978 108.778 235.513 104.431V104.431Z" fill="#FF9900"/>
</svg>
