<svg width="242" height="174" viewBox="0 0 242 174" fill="none" xmlns="http://www.w3.org/2000/svg">
<path d="M239.613 65.5537C238.957 65.0325 232.83 60.4061 219.909 60.4061C216.497 60.421 213.092 60.7137 209.728 61.2813C207.227 44.1401 193.055 35.7828 192.42 35.4079L188.95 33.407L186.668 36.7C183.81 41.1234 181.724 45.9997 180.499 51.1216C178.186 60.9064 179.593 70.0968 184.563 77.9538C178.561 81.2986 168.933 82.1219 166.984 82.1947H7.57524C3.41152 82.2005 0.0328575 85.5652 0.010166 89.7286C-0.175769 103.694 2.19024 117.575 6.99169 130.69C12.483 145.091 20.6526 155.699 31.2814 162.191C43.1917 169.485 62.5422 173.653 84.4767 173.653C94.3858 173.684 104.276 172.788 114.018 170.975C127.561 168.489 140.592 163.755 152.573 156.97C162.445 151.253 171.33 143.981 178.884 135.432C191.514 121.135 199.038 105.213 204.633 91.0623H206.863C220.69 91.0623 229.194 85.529 233.883 80.8921C236.999 77.9348 239.431 74.3323 241.01 70.3365L242 67.4398L239.613 65.5537Z" fill="#2496ED"/>
<path d="M22.3513 77.5265H43.7128C44.7431 77.5265 45.5779 76.6914 45.5779 75.6614V56.6338C45.5837 55.6035 44.7532 54.7639 43.7233 54.7582C43.7199 54.7582 43.7162 54.7582 43.7128 54.7582H22.3513C21.3211 54.7582 20.4862 55.5934 20.4862 56.6233V56.6338V75.6611C20.4862 76.6914 21.3211 77.5265 22.3513 77.5265V77.5265Z" fill="#2496ED"/>
<path d="M51.7882 77.5265H73.1497C74.1799 77.5265 75.0148 76.6914 75.0148 75.6614V56.6338C75.0205 55.6035 74.1901 54.7639 73.1598 54.7582C73.1565 54.7582 73.1527 54.7582 73.1493 54.7582H51.7878C50.7518 54.7582 49.9122 55.5978 49.9122 56.6338V75.6611C49.9183 76.6931 50.7562 77.5265 51.7882 77.5265" fill="#2496ED"/>
<path d="M81.6737 77.5265H103.035C104.065 77.5265 104.9 76.6914 104.9 75.6614V56.6338C104.906 55.6035 104.076 54.7639 103.045 54.7582C103.042 54.7582 103.038 54.7582 103.035 54.7582H81.6733C80.6431 54.7582 79.8082 55.5934 79.8082 56.6233V56.6338V75.6611C79.8086 76.6914 80.6437 77.5265 81.6737 77.5265V77.5265Z" fill="#2496ED"/>
<path d="M111.205 77.5265H132.566C133.598 77.5265 134.436 76.6934 134.442 75.6614V56.6338C134.442 55.5978 133.602 54.7582 132.566 54.7582H111.205C110.174 54.7582 109.34 55.5934 109.34 56.6233V56.6338V75.6611C109.34 76.6914 110.175 77.5265 111.205 77.5265V77.5265Z" fill="#2496ED"/>
<path d="M51.7887 50.1525H73.1502C74.1818 50.1468 75.0153 49.3086 75.0153 48.2769V29.2496C75.0153 28.2194 74.1801 27.3845 73.1502 27.3845H51.7887C50.7571 27.3845 49.9188 28.2177 49.9131 29.2496V48.2769C49.9188 49.3106 50.755 50.1468 51.7887 50.1525Z" fill="#2496ED"/>
<path d="M81.6733 50.1525H103.035C104.066 50.1468 104.9 49.3086 104.9 48.2769V29.2496C104.9 28.2194 104.065 27.3845 103.035 27.3845H81.6733C80.6431 27.3845 79.8082 28.2197 79.8082 29.2496V48.2769C79.8082 49.3086 80.6417 50.1468 81.6733 50.1525Z" fill="#2496ED"/>
<path d="M111.205 50.1525H132.566C133.6 50.1468 134.436 49.3106 134.442 48.2769V29.2496C134.436 28.2177 133.598 27.3845 132.566 27.3845H111.205C110.174 27.3845 109.34 28.2197 109.34 29.2496V48.2769C109.34 49.3086 110.173 50.1468 111.205 50.1525Z" fill="#2496ED"/>
<path d="M111.205 22.7684H132.566C133.598 22.7684 134.436 21.9349 134.442 20.9033V1.86511C134.436 0.83315 133.598 0 132.566 0H111.205C110.174 0 109.34 0.834844 109.34 1.86511V20.9029C109.34 21.9332 110.175 22.7684 111.205 22.7684Z" fill="#2496ED"/>
<path d="M140.996 77.5265H162.357C163.389 77.5265 164.227 76.6934 164.233 75.6614V56.6338C164.233 55.5978 163.393 54.7582 162.357 54.7582H140.996C139.966 54.7582 139.131 55.5934 139.131 56.6233V56.6338V75.6611C139.131 76.6914 139.966 77.5265 140.996 77.5265" fill="#2496ED"/>
</svg>
