<svg width="851" height="811" viewBox="0 0 851 811" fill="none" xmlns="http://www.w3.org/2000/svg">
<g clip-path="url(#clip0_223_164)">
<path d="M697.764 471.621C697.764 470.353 697.413 469.447 696.703 468.857C695.909 468.22 694.54 467.881 692.635 467.881H689.898V475.408H693.201C696.254 475.408 697.761 474.14 697.761 471.621H697.764ZM702.033 487.313H698.269L695.868 482.019C694.65 479.364 693.346 478.037 691.924 478.037H689.898V487.313H686.795V465.238H693.01C695.77 465.238 697.847 465.837 699.269 467.084C700.478 468.158 701.08 469.533 701.08 471.243C701.08 472.765 700.587 474.046 699.596 475.107C698.632 476.178 697.242 476.904 695.47 477.278V477.373C696.7 477.662 697.93 479.013 699.127 481.449L702.033 487.325V487.313ZM708.905 476.494C708.905 472.149 707.425 468.482 704.469 465.574C701.502 462.669 697.882 461.209 693.614 461.209C689.207 461.209 685.541 462.669 682.636 465.601C679.727 468.544 678.279 472.187 678.279 476.494C678.279 480.898 679.789 484.576 682.78 487.508C685.736 490.437 689.355 491.885 693.611 491.885C697.847 491.885 701.463 490.425 704.445 487.458C707.425 484.538 708.908 480.871 708.908 476.494H708.905ZM710.994 476.396C710.994 481.272 709.318 485.364 705.953 488.652C702.587 491.971 698.461 493.623 693.529 493.623C688.558 493.623 684.432 491.994 681.152 488.797C677.869 485.552 676.241 481.476 676.241 476.529C676.241 471.692 677.907 467.627 681.234 464.288C684.565 460.955 688.715 459.294 693.673 459.294C698.534 459.294 702.611 460.887 705.914 464.058C709.307 467.314 710.994 471.414 710.994 476.396ZM239.177 537.956H228.476V476.721C228.476 471.883 228.794 465.999 229.361 459.052H229.125C228.122 463.114 227.204 466.058 226.396 467.881L195.298 537.956H190.086L158.925 468.388C158.049 466.444 157.129 463.321 156.2 459.049H155.97C156.294 462.707 156.48 468.63 156.48 476.842V537.956H146.165V446.767H160.279L188.254 510.35C190.366 515.141 191.729 518.786 192.392 521.27H192.835C194.658 516.285 196.103 512.548 197.2 510.085L225.78 446.767H239.171V537.953L239.177 537.956ZM272.087 537.953H261.689V472.836H272.087V537.953ZM273.886 449.492C273.886 451.41 273.208 453.014 271.872 454.33C270.556 455.645 268.928 456.306 267.022 456.306C265.164 456.306 263.548 455.672 262.22 454.404C260.893 453.123 260.244 451.495 260.244 449.492C260.244 447.611 260.899 446.006 262.22 444.705C262.849 444.076 263.599 443.581 264.424 443.249C265.249 442.917 266.133 442.755 267.022 442.773C268.928 442.773 270.556 443.401 271.872 444.705C273.211 446.006 273.886 447.611 273.886 449.492ZM337.071 534.939C332.078 538.004 326.116 539.523 319.229 539.523C309.893 539.523 302.377 536.425 296.634 530.234C291.059 524.229 288.251 516.471 288.251 506.964C288.251 496.301 291.304 487.664 297.454 481.101C303.572 474.526 311.798 471.246 322.149 471.246C327.806 471.246 332.827 472.355 337.216 474.55V485.251C332.355 481.839 327.216 480.148 321.701 480.148C315.067 480.148 309.675 482.464 305.489 487.086C301.135 491.814 298.926 498.136 298.926 506.023C298.926 513.601 300.941 519.595 304.946 524.022C308.964 528.426 314.309 530.632 321.052 530.632C326.744 530.632 332.078 528.762 337.068 525.037L337.071 534.939ZM386.809 483.402C384.974 481.989 382.331 481.302 378.845 481.302C374.612 481.302 371.052 483.196 368.17 487.018C364.902 491.289 363.273 497.201 363.273 504.752V537.95H352.849V472.833H363.273V486.26H363.524C365.058 481.505 367.421 477.851 370.58 475.258C373.535 472.892 376.877 471.698 380.556 471.698C383.331 471.698 385.393 471.998 386.806 472.585V483.396L386.809 483.402ZM444.897 505.513C444.897 497.177 443.015 490.809 439.251 486.44C435.597 482.243 430.491 480.143 423.919 480.143C417.441 480.143 412.241 482.266 408.356 486.514C404.244 491.048 402.191 497.454 402.191 505.766C402.191 513.56 404.147 519.674 408.091 524.04C412.014 528.432 417.294 530.626 423.919 530.626C430.771 530.626 436.018 528.396 439.611 523.957C443.136 519.615 444.897 513.474 444.897 505.513ZM455.584 505.144C455.584 515.521 452.655 523.857 446.814 530.104C440.953 536.378 433.063 539.514 423.146 539.514C413.377 539.514 405.595 536.378 399.891 530.104C394.304 524.06 391.493 516.076 391.493 506.147C391.493 494.82 394.667 486.086 401.035 479.886C406.923 474.134 414.798 471.237 424.668 471.237C434.378 471.237 441.965 474.264 447.431 480.261C452.846 486.29 455.584 494.59 455.584 505.144ZM507.274 520.533C507.274 525.863 505.283 530.278 501.289 533.8C496.935 537.611 490.953 539.52 483.426 539.52C477.261 539.52 471.857 538.228 467.273 535.597V524.391C472.376 528.541 478.01 530.629 484.199 530.629C492.449 530.629 496.587 527.591 496.587 521.533C496.587 518.987 495.679 516.875 493.847 515.25C492.015 513.583 488.455 511.592 483.16 509.262C477.706 506.876 473.822 504.427 471.533 501.882C468.781 498.864 467.394 494.947 467.394 490.121C467.394 484.715 469.553 480.216 473.825 476.632C478.105 473.04 483.606 471.24 490.36 471.24C495.537 471.24 500.168 472.255 504.283 474.293V484.788C499.988 481.688 495.08 480.143 489.505 480.143C486.054 480.143 483.281 481.004 481.216 482.679C479.131 484.39 478.081 486.573 478.081 489.239C478.081 492.124 478.96 494.366 480.7 495.971C482.243 497.454 485.523 499.265 490.47 501.374C496.03 503.705 500.047 506.118 502.495 508.589C505.669 511.716 507.274 515.695 507.274 520.533ZM570.972 505.513C570.972 497.177 569.09 490.809 565.315 486.44C561.672 482.243 556.554 480.143 549.994 480.143C543.517 480.143 538.316 482.266 534.408 486.514C530.308 491.048 528.267 497.454 528.267 505.766C528.267 513.56 530.222 519.674 534.131 524.04C538.098 528.432 543.384 530.626 549.994 530.626C556.858 530.626 562.094 528.396 565.686 523.957C569.208 519.615 570.972 513.474 570.972 505.513ZM581.683 505.144C581.683 515.521 578.727 523.857 572.878 530.104C567.037 536.378 559.15 539.514 549.233 539.514C539.449 539.514 531.668 536.378 525.963 530.104C520.379 524.06 517.568 516.076 517.568 506.147C517.568 494.82 520.763 486.086 527.096 479.886C532.983 474.134 540.874 471.237 550.752 471.237C560.466 471.237 568.037 474.264 573.494 480.261C578.922 486.29 581.683 494.59 581.683 505.144ZM627.609 450.711C625.559 449.575 623.282 448.997 620.686 448.997C613.389 448.997 609.77 453.592 609.77 462.798V472.833H625.028V481.665H609.77V537.95H599.333V481.662H588.26V472.83H599.333V462.276C599.333 455.109 601.531 449.487 605.994 445.434C609.817 441.912 614.498 440.163 620.058 440.163C623.282 440.163 625.789 440.549 627.609 441.298V450.711ZM668.748 537.296C666.288 538.709 663.005 539.408 658.953 539.408C647.59 539.408 641.909 533.001 641.909 520.19V481.673H630.739V472.83H641.909V456.943C645.236 455.893 648.699 454.749 652.354 453.566V472.83H668.748V481.673H652.354V518.418C652.354 522.783 653.068 525.91 654.56 527.718C656.071 529.588 658.531 530.505 662.005 530.505C664.598 530.505 666.843 529.809 668.748 528.405V537.296Z" fill="white"/>
<path d="M105.303 792.095C105.303 797.198 103.483 801.611 99.8048 805.339C96.1354 809.056 91.6843 810.926 86.4604 810.926C81.3575 810.926 77.0155 809.056 73.4582 805.339C69.8979 801.611 68.1252 797.198 68.1252 792.095C68.1252 786.845 69.8979 782.42 73.4582 778.754C77.0155 775.073 81.3575 773.253 86.4604 773.253C91.6843 773.253 96.1354 775.099 99.8048 778.828C103.483 782.553 105.303 786.98 105.303 792.095ZM338.673 807.091H304.681L181.287 616.53C178.318 611.779 175.813 606.753 173.806 601.522H172.792C173.671 606.625 174.119 617.577 174.119 634.358V807.091H146.097V568.011H182.467L302.171 755.569C306.937 763.011 310.194 768.341 311.846 771.554H312.512C311.4 764.675 310.822 752.95 310.822 736.399V568.011H338.676L338.673 807.091ZM518.323 807.091H391.611V568.011H512.822V593.346H419.612V672.875H505.985V698.222H419.609V781.745H518.32L518.323 807.091ZM710.522 593.349H641.656V807.094H613.642V593.349H544.646V568.002H710.525L710.522 593.349Z" fill="white"/>
<path d="M329.172 155.07C356.203 237.738 366.444 385.21 445.496 385.21C451.513 385.21 457.595 384.62 463.698 383.458C391.838 366.704 383.319 220.836 339.472 145.298C335.975 148.488 332.543 151.746 329.172 155.07Z" fill="url(#paint0_linear_223_164)"/>
<path d="M339.472 145.298C383.322 220.836 391.838 366.704 463.698 383.458C469.344 382.423 475.001 380.853 480.671 378.874C416.17 347.274 398.342 205.625 348.543 137.434C345.469 139.997 342.445 142.62 339.472 145.301" fill="url(#paint1_linear_223_164)"/>
<path d="M402.652 100.371C396.646 100.371 390.552 100.961 384.437 102.123C368.441 105.138 352.194 112.025 335.812 122.446C340.286 126.862 344.543 131.915 348.549 137.431C365.208 123.606 381.762 113.391 398.251 107.25C404.269 104.998 410.472 103.273 416.789 102.097C412.167 100.934 407.418 100.354 402.652 100.371Z" fill="#14559A"/>
<path d="M531.022 349.743C537.894 344.253 544.512 338.453 550.855 332.361C523.388 250.076 513.557 100.495 433.951 100.495C428.258 100.495 422.515 101.026 416.784 102.088C489.296 120.122 498.584 277.883 531.025 349.743" fill="url(#paint2_linear_223_164)"/>
<path d="M416.787 102.091C412.164 100.929 407.415 100.351 402.649 100.368L433.954 100.483C428.261 100.483 422.518 101.017 416.787 102.091Z" fill="#3092C4"/>
<path d="M529.633 367.223C526.521 364.256 523.565 360.999 520.657 357.524C507.265 367.005 493.927 374.196 480.671 378.874C485.402 381.198 490.412 382.905 495.578 383.954C499.76 384.8 504.016 385.221 508.283 385.21C523.155 385.21 534.918 383.449 544.93 378.647C539.417 375.668 534.361 371.804 529.633 367.223Z" fill="#1969BC"/>
<path d="M398.245 107.261C463.191 141.23 468.837 295.062 520.66 357.524C524.186 355.033 527.639 352.438 531.013 349.743C498.572 277.883 489.296 120.11 416.798 102.088C410.477 103.278 404.27 105.008 398.245 107.261Z" fill="url(#paint3_linear_223_164)"/>
<path d="M348.543 137.434C398.339 205.625 416.17 347.271 480.671 378.874C493.93 374.196 507.271 367.005 520.66 357.524C468.837 295.062 463.191 141.23 398.245 107.261C381.756 113.391 365.202 123.606 348.543 137.431" fill="url(#paint4_linear_223_164)"/>
<path d="M297.31 153.079C289.505 170.727 281.532 193.923 271.892 224.202C291.062 197.194 310.17 173.921 329.172 155.073C326.556 147.026 323.745 139.608 320.715 132.995C312.558 139.264 304.746 145.969 297.313 153.082" fill="url(#paint5_linear_223_164)"/>
<path d="M327.635 127.903C325.303 129.563 322.998 131.26 320.721 132.994C323.751 139.605 326.55 147.023 329.166 155.07C332.542 151.752 335.976 148.494 339.466 145.298C335.788 138.976 331.88 133.139 327.635 127.903Z" fill="#2B74B1"/>
<path d="M335.809 122.449C333.044 124.207 330.318 126.024 327.632 127.9C331.88 133.136 335.788 138.974 339.478 145.307C342.445 142.616 345.47 139.99 348.551 137.431C344.546 131.918 340.286 126.862 335.809 122.447" fill="#125A9E"/>
<path d="M778.813 94.0764C742.08 235.735 665.359 349.513 601.035 378.199H600.917C599.746 378.73 598.587 379.213 597.443 379.682C597.283 379.78 597.139 379.792 597.018 379.848C596.682 379.983 596.369 380.089 596.03 380.225C595.871 380.32 595.729 380.352 595.584 380.408C595.042 380.603 594.511 380.765 593.98 380.977C593.75 381.075 593.534 381.134 593.316 381.21C593.055 381.311 592.79 381.397 592.52 381.47C592.278 381.564 592.024 381.635 591.747 381.741C591.517 381.836 591.275 381.877 591.06 381.971C590.588 382.107 590.157 382.222 589.685 382.384C589.49 382.384 589.31 382.49 589.107 382.544C588.815 382.638 588.488 382.706 588.175 382.794C587.96 382.889 587.78 382.921 587.55 382.968C587.225 383.063 586.862 383.151 586.535 383.228L585.305 383.499C588.251 384.585 591.368 385.133 594.508 385.116C655.501 385.116 716.996 275.812 818.752 94.0439H778.798L778.813 94.0764Z" fill="url(#paint6_linear_223_164)"/>
<path d="M258.648 106.12C258.686 106.12 258.737 106.026 258.757 106.026C258.807 106.026 258.881 106.026 258.905 105.931H258.981C259.318 105.813 259.63 105.68 259.97 105.554C260.058 105.554 260.102 105.554 260.164 105.459C260.25 105.459 260.332 105.362 260.418 105.35C260.778 105.235 261.141 105.099 261.48 104.975H261.536C262.344 104.734 263.093 104.433 263.875 104.152C263.987 104.152 264.093 104.058 264.226 104.058C264.55 103.952 264.89 103.837 265.229 103.76C265.385 103.663 265.542 103.663 265.686 103.613C266.034 103.509 266.373 103.391 266.698 103.315C266.845 103.315 266.975 103.217 267.084 103.209C268.205 102.899 269.317 102.61 270.438 102.341C270.594 102.341 270.727 102.244 270.895 102.235C271.22 102.141 271.523 102.088 271.874 102.041C272.019 101.946 272.187 101.946 272.355 101.896C272.68 101.802 272.995 101.79 273.346 101.713H273.574C274.252 101.574 274.939 101.462 275.615 101.336H276.025C276.349 101.241 276.638 101.229 276.966 101.17C277.143 101.17 277.326 101.076 277.497 101.076C277.797 101.076 278.098 100.979 278.399 100.94C278.559 100.94 278.712 100.94 278.895 100.843C279.606 100.749 280.34 100.71 281.089 100.651C278.933 100.434 276.767 100.321 274.6 100.312C205.914 100.312 111.276 227.759 68.6473 392.806H76.8621C90.5044 368.477 102.76 345.46 113.969 323.854C143.823 206.949 204.634 127.225 258.651 106.102" fill="url(#paint7_linear_223_164)"/>
<path d="M297.313 153.079C304.746 145.966 312.558 139.26 320.715 132.991C319.056 129.301 317.195 125.705 315.14 122.219C308.858 129.844 303.115 139.906 297.313 153.079Z" fill="#0D82CA"/>
<path d="M302.955 107.087C307.442 110.851 311.459 116.025 315.137 122.228C316.297 120.804 317.468 119.488 318.686 118.258C313.583 113.494 308.067 109.586 302.085 106.642C302.327 106.775 302.569 106.884 302.82 106.99C302.82 106.99 302.914 107.087 302.955 107.087Z" fill="#0D82CA"/>
<path d="M113.963 323.868C176.597 203.176 206.271 126.791 258.648 106.114C204.642 127.251 143.82 206.975 113.966 323.868" fill="url(#paint8_linear_223_164)"/>
<path d="M318.68 118.255C317.462 119.497 316.306 120.8 315.135 122.225C317.19 125.711 319.055 129.306 320.721 132.994C322.997 131.261 325.301 129.565 327.632 127.906C324.877 124.484 321.886 121.259 318.68 118.255Z" fill="#127BCA"/>
<path d="M142.398 392.278C142.012 392.375 141.625 392.375 141.263 392.413H141.047C140.72 392.413 140.381 392.511 140.08 392.511H139.923C139.139 392.605 138.366 392.605 137.62 392.664H137.378C200.769 390.891 229.744 359.153 244.127 313.12C255.055 278.222 264.028 248.823 271.895 224.155C245.342 261.527 218.671 306.076 191.855 355.982C178.924 380.033 159.262 390.08 142.395 392.233" fill="url(#paint9_linear_223_164)"/>
<path d="M142.398 392.254C159.262 390.106 178.924 380.072 191.856 356.002C218.671 306.111 245.357 261.55 271.88 224.178C281.532 193.885 289.496 170.7 297.313 153.052C244.44 203.38 191.36 287.062 142.395 392.23" fill="url(#paint10_linear_223_164)"/>
<path d="M113.963 323.871C102.754 345.475 90.4985 368.491 76.8563 392.823H100.752C103.769 369.599 108.181 346.577 113.963 323.883" fill="#05A1E6"/>
<path d="M278.892 100.905C278.697 100.905 278.553 100.999 278.384 100.999C278.095 101.097 277.795 101.097 277.491 101.126C277.314 101.126 277.143 101.126 276.96 101.223C276.635 101.318 276.334 101.327 276.019 101.389C275.874 101.389 275.73 101.389 275.609 101.483C274.922 101.598 274.246 101.725 273.574 101.84H273.343C272.992 101.937 272.677 101.987 272.352 102.035C272.184 102.129 272.016 102.129 271.857 102.167C271.532 102.265 271.208 102.303 270.892 102.362C270.724 102.456 270.591 102.456 270.435 102.465C269.314 102.737 268.202 103.026 267.081 103.335C266.963 103.335 266.839 103.43 266.695 103.45C266.359 103.545 266.031 103.642 265.68 103.748C265.536 103.846 265.368 103.846 265.223 103.884C264.887 103.977 264.553 104.076 264.22 104.182C264.09 104.182 263.981 104.276 263.86 104.276C263.087 104.565 262.326 104.857 261.53 105.096C261.194 105.202 260.831 105.338 260.468 105.465C260.324 105.559 260.194 105.583 260.026 105.648C259.686 105.754 259.347 105.89 259.035 106.014C258.917 106.111 258.793 106.12 258.71 106.17C206.333 126.847 176.656 203.229 114.025 323.921C108.238 346.615 103.827 369.638 100.817 392.864H104.17C113.615 392.864 116.282 392.767 127.148 392.767H137.682C138.428 392.673 139.201 392.673 139.982 392.611H140.13C140.454 392.611 140.779 392.516 141.094 392.516H141.325C141.673 392.516 142.071 392.422 142.457 392.381C191.422 287.213 244.499 203.53 297.375 153.203C303.185 140.032 308.917 129.971 315.191 122.358C311.521 116.158 307.504 110.972 303.017 107.208C298.531 103.444 302.896 107.208 302.887 107.111C302.631 107.008 302.392 106.881 302.138 106.757C301.885 106.618 301.666 106.512 301.401 106.379C301.154 106.276 300.913 106.159 300.678 106.031C300.365 105.934 300.112 105.798 299.835 105.674C299.604 105.577 299.401 105.48 299.171 105.385C298.704 105.204 298.241 105.01 297.785 104.804C297.578 104.71 297.386 104.657 297.195 104.583C296.844 104.455 296.496 104.318 296.153 104.17C295.985 104.073 295.793 104.052 295.599 103.984C295.106 103.819 294.622 103.645 294.165 103.492H294.044C293.49 103.309 292.947 103.173 292.381 103.02C292.248 102.922 292.139 102.922 292.006 102.902C291.511 102.769 291.077 102.636 290.608 102.509C290.49 102.509 290.378 102.412 290.283 102.412C289.13 102.117 287.966 101.863 286.794 101.651C286.676 101.651 286.555 101.554 286.434 101.554C285.935 101.455 285.432 101.374 284.927 101.312C284.803 101.217 284.732 101.217 284.626 101.217C284.032 101.126 283.436 101.049 282.838 100.984H282.526C282.042 100.89 281.597 100.881 281.151 100.831C280.39 100.925 279.668 100.967 278.954 101.035" fill="url(#paint11_linear_223_164)"/>
<path d="M635.331 172.5C623.282 211.102 613.521 242.947 605.029 269.149C638.095 223.647 670.666 166.406 701.682 100.35C665.504 111.713 646.201 137.723 635.331 172.5Z" fill="url(#paint12_linear_223_164)"/>
<path d="M606.079 375.786C604.392 376.647 602.702 377.464 601.036 378.199C665.359 349.513 742.08 235.735 778.813 94.0764H771.368C686.977 244.829 659.834 345.749 606.079 375.786Z" fill="url(#paint13_linear_223_164)"/>
<path d="M564.079 363.123C578.072 346.041 589.473 317.005 605.035 269.149C587.083 293.808 569.014 315.002 550.929 332.29C550.929 332.384 550.929 332.384 550.835 332.443C554.782 344.266 559.112 354.699 564.044 363.12" fill="#079AE1"/>
<path d="M564.079 363.123C559.315 368.934 554.271 373.364 548.664 376.644C547.431 377.358 546.189 378.03 544.924 378.65C551.01 381.946 557.672 384.046 564.548 384.835C565.61 384.942 566.66 385.039 567.757 385.116H567.952C568.444 385.116 568.967 385.116 569.498 385.21H574.73C574.922 385.21 575.123 385.21 575.317 385.116C575.692 385.116 576.09 385.116 576.473 385.018H577.046C577.441 385.018 577.875 384.924 578.299 384.883H578.397C578.521 384.883 578.656 384.788 578.78 384.788C579.223 384.691 579.689 384.653 580.122 384.585H580.518C581.007 384.49 581.517 384.428 582.022 384.334H582.267C583.278 384.139 584.267 383.951 585.269 383.697C576.969 380.659 570.02 373.491 564.038 363.285" fill="#1969BC"/>
<path d="M445.496 385.21C451.516 385.21 457.595 384.62 463.701 383.449C469.347 382.426 475.004 380.853 480.674 378.877C485.402 381.199 490.408 382.906 495.57 383.957C499.755 384.802 504.016 385.222 508.286 385.21H445.496Z" fill="#1E5CB3"/>
<path d="M508.286 385.21C523.149 385.21 534.921 383.449 544.921 378.647C551.008 381.945 557.67 384.047 564.548 384.838C565.61 384.942 566.66 385.039 567.757 385.116H567.952C568.444 385.116 568.967 385.116 569.498 385.213H571.3H508.244L508.286 385.21Z" fill="#1E5CB3"/>
<path d="M571.335 385.21H574.774C574.981 385.21 575.17 385.21 575.364 385.116C575.739 385.116 576.137 385.116 576.535 385.018H577.105C577.5 385.018 577.934 384.924 578.347 384.886H578.453C578.58 384.886 578.703 384.791 578.83 384.791C579.273 384.694 579.736 384.656 580.169 384.585C580.314 384.585 580.429 384.585 580.582 384.49C581.075 384.396 581.585 384.346 582.093 384.251H582.334C583.346 384.057 584.334 383.865 585.337 383.614C588.283 384.7 591.401 385.248 594.54 385.231L571.356 385.325L571.335 385.21Z" fill="#1D60B5"/>
<path d="M550.873 332.446V332.349C544.53 338.441 537.913 344.242 531.042 349.731C527.663 352.423 524.207 355.018 520.68 357.513C523.586 360.987 526.544 364.244 529.656 367.214C534.384 371.795 539.437 375.656 544.95 378.635C546.207 378.016 547.46 377.343 548.679 376.632C554.301 373.352 559.342 368.925 564.105 363.111C559.174 354.69 554.843 344.257 550.897 332.434" fill="#175FAB"/>
<path d="M747.797 94.0764H710.333C708.31 94.1738 706.342 94.2416 704.401 94.3655C703.484 96.3329 702.543 98.3004 701.637 100.28C670.624 166.335 638.054 223.576 604.988 269.078C589.437 316.931 578.028 345.968 564.035 363.049C570.017 373.255 576.978 380.432 585.252 383.473C585.494 383.375 585.688 383.375 585.904 383.325H586.039C586.184 383.325 586.34 383.231 586.497 383.231C586.833 383.134 587.196 383.075 587.535 382.971C587.75 382.874 587.93 382.865 588.148 382.794C588.464 382.7 588.788 382.632 589.078 382.555C589.272 382.458 589.464 382.429 589.656 382.39C590.139 382.234 590.573 382.119 591.033 381.974C591.248 381.88 591.479 381.797 591.72 381.741C591.986 381.647 592.251 381.579 592.493 381.464C592.77 381.367 593.048 381.317 593.29 381.213C593.505 381.116 593.732 381.057 593.939 380.971C594.481 380.777 595.012 380.615 595.555 380.402C595.703 380.402 595.847 380.266 596.003 380.237C596.328 380.101 596.667 379.995 596.992 379.851C597.11 379.753 597.257 379.744 597.413 379.694C598.549 379.222 599.717 378.738 600.888 378.21H601.009C602.709 377.454 604.387 376.649 606.041 375.798C659.805 345.761 686.951 244.841 771.341 94.0882H747.77L747.797 94.0764Z" fill="url(#paint14_linear_223_164)"/>
<path d="M281.092 100.701C281.225 100.701 281.343 100.701 281.476 100.796C281.8 100.796 282.125 100.796 282.452 100.902H282.777C283.369 100.996 283.962 101.05 284.564 101.135C284.673 101.135 284.771 101.135 284.865 101.229C285.36 101.324 285.868 101.406 286.372 101.48C286.484 101.48 286.626 101.578 286.747 101.578C287.906 101.808 289.089 102.049 290.222 102.347C290.331 102.347 290.44 102.445 290.534 102.445C291.018 102.56 291.452 102.704 291.935 102.84C292.083 102.84 292.189 102.934 292.319 102.958C292.888 103.103 293.419 103.247 293.974 103.43C293.997 103.43 294.033 103.43 294.094 103.524C294.566 103.669 295.047 103.852 295.543 104.017C295.737 104.111 295.917 104.153 296.097 104.2C296.437 104.347 296.811 104.489 297.136 104.625C297.33 104.625 297.519 104.76 297.726 104.831C298.171 105.032 298.64 105.214 299.1 105.406C299.342 105.504 299.546 105.613 299.779 105.698C300.044 105.834 300.318 105.958 300.607 106.052C300.849 106.17 301.115 106.294 301.345 106.4C301.598 106.539 301.837 106.642 302.082 106.778C308.064 109.722 313.577 113.642 318.68 118.397C320.507 116.473 322.474 114.686 324.565 113.052C313.406 105.135 300.767 100.622 286.181 100.622C284.493 100.622 282.803 100.719 281.089 100.846" fill="#7DCBEC"/>
<path d="M318.68 118.255C321.886 121.259 324.877 124.484 327.632 127.906C330.315 126.024 333.041 124.204 335.809 122.449C332.336 118.953 328.57 115.761 324.553 112.907C322.463 114.538 320.498 116.325 318.677 118.252" fill="#5EC5ED"/>
<path d="M281.086 100.698C282.797 100.554 284.487 100.492 286.178 100.492C300.761 100.492 313.403 105.005 324.562 112.91C336.337 103.619 350.569 100.374 370.341 100.374H274.594C276.806 100.374 278.963 100.507 281.086 100.698Z" fill="url(#paint15_linear_223_164)"/>
<path d="M370.341 100.374C350.569 100.374 336.337 103.619 324.562 112.91C328.573 115.766 332.335 118.957 335.806 122.449C352.197 112.028 368.435 105.126 384.446 102.111C390.446 100.97 396.539 100.389 402.646 100.374H370.341Z" fill="url(#paint16_linear_223_164)"/>
<path d="M605.029 269.173C613.533 242.95 623.27 211.114 635.343 172.5C646.228 137.708 665.489 111.701 701.667 100.35C702.623 98.4065 703.525 96.4037 704.454 94.4392C645.478 97.9729 617.914 127.974 604.041 172.402C579.783 249.967 565.088 300.247 550.938 332.287C569.011 315.014 587.081 293.805 605.029 269.173Z" fill="url(#paint17_linear_223_164)"/>
<path d="M691.555 364.548H684.871V385.322H682.146V364.548H675.435V362.076H691.552L691.555 364.548ZM718.92 385.316H716.206V369.707C716.206 368.477 716.3 366.969 716.427 365.194C716.147 366.255 715.917 366.993 715.704 367.465L707.79 385.316H706.463L698.528 367.598C698.292 367.105 698.062 366.306 697.812 365.196H697.717C697.812 366.132 697.844 367.645 697.844 369.745V385.319H695.237V362.073H698.835L705.962 378.296C706.501 379.514 706.841 380.455 707.012 381.083H707.118C707.59 379.803 707.973 378.851 708.239 378.222L715.513 362.073H718.937V385.316H718.92Z" fill="white"/>
</g>
<defs>
<linearGradient id="paint0_linear_223_164" x1="18160.5" y1="-12726.8" x2="18160.5" y2="85641.6" gradientUnits="userSpaceOnUse">
<stop stop-color="#0994DC"/>
<stop offset="0.35" stop-color="#66CEF5"/>
<stop offset="0.846" stop-color="#127BCA"/>
<stop offset="1" stop-color="#127BCA"/>
</linearGradient>
<linearGradient id="paint1_linear_223_164" x1="19056.2" y1="-13062.6" x2="19056.2" y2="87811.1" gradientUnits="userSpaceOnUse">
<stop stop-color="#0E76BC"/>
<stop offset="0.36" stop-color="#36AEE8"/>
<stop offset="0.846" stop-color="#00ADEF"/>
<stop offset="1" stop-color="#00ADEF"/>
</linearGradient>
<linearGradient id="paint2_linear_223_164" x1="18188.2" y1="76107.8" x2="18188.2" y2="-4157.54" gradientUnits="userSpaceOnUse">
<stop stop-color="#1C63B7"/>
<stop offset="0.5" stop-color="#33BDF2"/>
<stop offset="1" stop-color="#33BDF2" stop-opacity="0.42"/>
</linearGradient>
<linearGradient id="paint3_linear_223_164" x1="17997.5" y1="-13602.2" x2="17997.5" y2="91132.1" gradientUnits="userSpaceOnUse">
<stop stop-color="#166AB8"/>
<stop offset="0.4" stop-color="#36AEE8"/>
<stop offset="0.846" stop-color="#0798DD"/>
<stop offset="1" stop-color="#0798DD"/>
</linearGradient>
<linearGradient id="paint4_linear_223_164" x1="23162.9" y1="-14469.4" x2="23162.9" y2="96901.9" gradientUnits="userSpaceOnUse">
<stop stop-color="#124379"/>
<stop offset="0.39" stop-color="#1487CB"/>
<stop offset="0.78" stop-color="#165197"/>
<stop offset="1" stop-color="#165197"/>
</linearGradient>
<linearGradient id="paint5_linear_223_164" x1="271.892" y1="12670.6" x2="329.172" y2="12670.6" gradientUnits="userSpaceOnUse">
<stop stop-color="#33BDF2" stop-opacity="0.698"/>
<stop offset="1" stop-color="#1DACD8"/>
</linearGradient>
<linearGradient id="paint6_linear_223_164" x1="31535.8" y1="75863.2" x2="31535.8" y2="-2326.61" gradientUnits="userSpaceOnUse">
<stop stop-color="#136AB4"/>
<stop offset="0.6" stop-color="#59CAF5" stop-opacity="0.549"/>
<stop offset="1" stop-color="#59CAF5" stop-opacity="0.235"/>
</linearGradient>
<linearGradient id="paint7_linear_223_164" x1="68.0841" y1="40306.4" x2="56388.1" y2="40306.4" gradientUnits="userSpaceOnUse">
<stop stop-color="#05A1E6" stop-opacity="0.247"/>
<stop offset="1" stop-color="#05A1E6"/>
</linearGradient>
<linearGradient id="paint8_linear_223_164" x1="19291.7" y1="74526.7" x2="19291.7" y2="-5533.77" gradientUnits="userSpaceOnUse">
<stop stop-color="#318ED5"/>
<stop offset="1" stop-color="#38A7E4"/>
</linearGradient>
<linearGradient id="paint9_linear_223_164" x1="17967.8" y1="42474" x2="17967.8" y2="-35347.7" gradientUnits="userSpaceOnUse">
<stop stop-color="#05A1E6"/>
<stop offset="1" stop-color="#05A1E6" stop-opacity="0.549"/>
</linearGradient>
<linearGradient id="paint10_linear_223_164" x1="20677.3" y1="65920.9" x2="20677.3" y2="159.629" gradientUnits="userSpaceOnUse">
<stop stop-color="#1959A6"/>
<stop offset="0.5" stop-color="#05A1E6"/>
<stop offset="0.918" stop-color="#7EC5EA"/>
<stop offset="1" stop-color="#7EC5EA"/>
</linearGradient>
<linearGradient id="paint11_linear_223_164" x1="34088.8" y1="76025.4" x2="12529" y2="7698.61" gradientUnits="userSpaceOnUse">
<stop stop-color="#165096"/>
<stop offset="1" stop-color="#0D82CA"/>
</linearGradient>
<linearGradient id="paint12_linear_223_164" x1="13415.4" y1="35832.1" x2="13415.4" y2="-1430.58" gradientUnits="userSpaceOnUse">
<stop stop-color="#05A1E6"/>
<stop offset="0.874" stop-color="#0495D6"/>
<stop offset="1" stop-color="#0495D6"/>
</linearGradient>
<linearGradient id="paint13_linear_223_164" x1="31359.6" y1="-3156.11" x2="-2354.96" y2="74472.6" gradientUnits="userSpaceOnUse">
<stop stop-color="#38A7E4" stop-opacity="0.329"/>
<stop offset="0.962" stop-color="#0E88D3"/>
<stop offset="1" stop-color="#0E88D3"/>
</linearGradient>
<linearGradient id="paint14_linear_223_164" x1="28052.7" y1="-141.423" x2="28052.7" y2="81152.2" gradientUnits="userSpaceOnUse">
<stop stop-color="#168CD4"/>
<stop offset="0.5" stop-color="#1C87CC"/>
<stop offset="1" stop-color="#154B8D"/>
</linearGradient>
<linearGradient id="paint15_linear_223_164" x1="4506.99" y1="-6971.76" x2="4844.68" y2="1502.64" gradientUnits="userSpaceOnUse">
<stop stop-color="#97D6EE"/>
<stop offset="0.703" stop-color="#55C1EA"/>
<stop offset="1" stop-color="#55C1EA"/>
</linearGradient>
<linearGradient id="paint16_linear_223_164" x1="1750.84" y1="-259.896" x2="3259.33" y2="-9132.54" gradientUnits="userSpaceOnUse">
<stop stop-color="#7ACCEC"/>
<stop offset="1" stop-color="#3FB7ED"/>
</linearGradient>
<linearGradient id="paint17_linear_223_164" x1="20898.9" y1="4255.14" x2="20898.9" y2="83766.9" gradientUnits="userSpaceOnUse">
<stop stop-color="#1DA7E7"/>
<stop offset="1" stop-color="#37ABE7" stop-opacity="0"/>
</linearGradient>
<clipPath id="clip0_223_164">
<rect width="850.741" height="810.926" fill="white"/>
</clipPath>
</defs>
</svg>
