<svg width="114" height="70" viewBox="0 0 114 70" fill="none" xmlns="http://www.w3.org/2000/svg">
<g clip-path="url(#clip0_257_232)">
<path d="M26.4514 53.3237C25.2357 53.3237 24.1527 52.9124 23.1095 52.521C22.2156 52.181 21.373 51.8626 20.5736 51.8626C19.8638 51.8626 19.0545 52.1661 18.197 52.4845C17.1605 52.8676 15.9862 53.3071 14.7109 53.3071C12.6145 53.3071 10.7354 52.1064 8.95753 49.6435C8.8829 49.539 1.64522 38.9097 5.16123 31.017C7.08675 26.6949 9.86141 24.5007 13.4073 24.5007C15.2781 24.5007 17.0046 25.0878 18.3911 25.5605C19.1672 25.8242 19.9003 26.073 20.2867 26.073C20.7428 26.073 21.4759 25.806 22.2471 25.519C23.5341 25.0464 25.1395 24.4543 26.9804 24.4543C29.6489 24.4543 32.0637 25.6865 34.3657 28.2207C34.4434 28.3073 34.5022 28.409 34.5385 28.5195C34.5747 28.63 34.5876 28.7468 34.5763 28.8626C34.5635 28.9781 34.527 29.0897 34.4691 29.1904C34.4112 29.2912 34.3331 29.3789 34.2397 29.448C31.8133 31.216 30.5827 33.2609 30.5827 35.5281C30.5827 38.3359 31.9692 40.3991 35.2115 42.4175C35.3822 42.5227 35.5087 42.6864 35.5673 42.8781C35.6259 43.0699 35.6126 43.2764 35.53 43.459C32.4817 50.2787 29.6821 53.3237 26.4514 53.3237ZM20.3647 24.0264C20.1657 24.0264 19.965 24.0131 19.7676 23.9899C19.572 23.9666 19.3911 23.874 19.2579 23.7289C19.1246 23.5838 19.0477 23.3957 19.0412 23.1988C18.8223 17.6495 23.5258 14.2512 27.002 13.9361C27.2085 13.9185 27.4142 13.9781 27.5793 14.1034C27.7445 14.2287 27.8573 14.4108 27.8959 14.6144C28.279 16.7506 27.5625 19.099 25.9256 21.056C24.3699 22.9169 22.2902 24.0264 20.3647 24.0264Z" fill="white"/>
</g>
<g clip-path="url(#clip1_257_232)">
<path d="M47.13 17.6458C45.3391 17.6458 43.9216 19.0458 43.9216 20.7958C43.9216 21.2145 44.0049 21.6289 44.1669 22.0149C44.3288 22.401 44.5661 22.7508 44.8648 23.0441C45.1635 23.3374 45.5177 23.5682 45.9066 23.723C46.2955 23.8778 46.7114 23.9536 47.13 23.9458C48.9383 23.9458 50.3675 22.5458 50.3675 20.7958C50.3675 19.0458 48.9383 17.6458 47.13 17.6458ZM69.3258 17.7042C59.5258 17.7042 53.4008 24.3833 53.4008 35C53.4008 45.7042 59.5258 52.3542 69.3258 52.3542C79.0675 52.3542 85.2216 45.7042 85.2216 35C85.2216 24.3833 79.0675 17.7042 69.3258 17.7042ZM100.942 17.7042C93.6508 17.7042 88.4591 21.7292 88.4591 27.7083C88.4591 32.4625 91.405 35.4375 97.5883 36.8667L101.934 37.9167C106.163 38.8792 107.884 40.2792 107.884 42.7C107.884 45.5 105.055 47.4833 101.03 47.4833C96.9175 47.4833 93.8258 45.4708 93.505 42.3792H87.6716C87.905 48.5625 92.98 52.3542 100.68 52.3542C108.817 52.3542 113.922 48.3583 113.922 42C113.922 37.0125 111.005 34.1833 104.238 32.6375L100.359 31.7625C96.2466 30.7708 94.555 29.4583 94.555 27.2417C94.555 24.4417 97.1216 22.575 100.913 22.575C104.734 22.575 107.359 24.4708 107.651 27.5917H113.367C113.222 21.7 108.351 17.7042 100.942 17.7042ZM69.3258 22.8083C75.2758 22.8083 79.0966 27.5625 79.0966 35C79.0966 42.4958 75.2758 47.25 69.3258 47.25C63.3175 47.25 59.5258 42.4958 59.5258 35C59.5258 27.5625 63.3175 22.8083 69.3258 22.8083ZM44.2454 27.1542V51.8H50.0466V27.1542H44.2425H44.2454Z" fill="white"/>
</g>
<defs>
<clipPath id="clip0_257_232">
<rect width="39.8039" height="39.8039" fill="white" transform="translate(0 13.7255)"/>
</clipPath>
<clipPath id="clip1_257_232">
<rect width="70" height="70" fill="white" transform="translate(43.9216)"/>
</clipPath>
</defs>
</svg>
