<svg width="751" height="299" viewBox="0 0 751 299" fill="none" xmlns="http://www.w3.org/2000/svg">
<path d="M260.525 61.0699C287.556 143.738 297.797 291.21 376.848 291.21C382.866 291.21 388.948 290.62 395.051 289.458C323.191 272.704 314.672 126.836 270.825 51.2976C267.327 54.4877 263.895 57.7457 260.525 61.0699Z" fill="url(#paint0_linear_305_101)"/>
<path d="M270.825 51.2977C314.675 126.836 323.191 272.704 395.051 289.458C400.697 288.423 406.354 286.853 412.023 284.874C347.523 253.274 329.695 111.625 279.895 43.4338C276.821 45.9974 273.797 48.6201 270.825 51.3006" fill="url(#paint1_linear_305_101)"/>
<path d="M334.004 6.37097C327.999 6.37097 321.905 6.9609 315.79 8.12308C299.794 11.1377 283.547 18.0252 267.165 28.4464C271.639 32.8621 275.896 37.9149 279.901 43.4308C296.561 29.6056 313.115 19.3909 329.603 13.2496C335.622 10.9977 341.825 9.27346 348.142 8.09653C343.52 6.93373 338.771 6.35404 334.004 6.37097Z" fill="#14559A"/>
<path d="M462.374 255.743C469.246 250.253 475.864 244.453 482.208 238.361C454.741 156.076 444.909 6.49487 365.303 6.49487C359.61 6.49487 353.867 7.02582 348.136 8.0877C420.648 26.1221 429.937 183.883 462.377 255.743" fill="url(#paint2_linear_305_101)"/>
<path d="M348.139 8.09067C343.517 6.92941 338.767 6.35072 334.001 6.36805L365.306 6.48309C359.614 6.48309 353.871 7.01698 348.139 8.09067Z" fill="#3092C4"/>
<path d="M460.985 273.223C457.873 270.256 454.918 266.999 452.009 263.524C438.618 273.005 425.279 280.196 412.023 284.874C416.755 287.198 421.765 288.905 426.931 289.954C431.113 290.8 435.369 291.221 439.635 291.21C454.508 291.21 466.271 289.449 476.282 284.647C470.769 281.668 465.714 277.804 460.985 273.223Z" fill="#1969BC"/>
<path d="M329.598 13.2614C394.544 47.2299 400.189 201.062 452.012 263.524C455.539 261.033 458.992 258.438 462.366 255.743C429.925 183.883 420.648 26.1102 348.151 8.08765C341.83 9.27752 335.622 11.0085 329.598 13.2614Z" fill="url(#paint3_linear_305_101)"/>
<path d="M279.895 43.4338C329.692 111.625 347.523 253.271 412.023 284.874C425.282 280.196 438.624 273.005 452.012 263.524C400.189 201.062 394.544 47.23 329.598 13.2615C313.109 19.3909 296.555 29.6057 279.895 43.4308" fill="url(#paint4_linear_305_101)"/>
<path d="M228.662 59.079C220.858 76.727 212.885 99.9233 203.245 130.202C222.415 103.194 241.523 79.9215 260.525 61.073C257.909 53.0263 255.097 45.6078 252.068 38.9946C243.911 45.2637 236.099 51.9693 228.665 59.082" fill="url(#paint5_linear_305_101)"/>
<path d="M258.988 33.9033C256.656 35.563 254.351 37.2603 252.074 38.9945C255.103 45.6047 257.903 53.0232 260.519 61.0699C263.894 57.7519 267.328 54.494 270.819 51.2976C267.141 44.9764 263.233 39.139 258.988 33.9033Z" fill="#2B74B1"/>
<path d="M267.162 28.4495C264.397 30.2067 261.671 32.0242 258.985 33.9005C263.233 39.1362 267.141 44.9736 270.831 51.3066C273.798 48.6159 276.823 45.99 279.904 43.4309C275.899 37.918 271.639 32.8622 267.162 28.4465" fill="#125A9E"/>
<path d="M710.165 0.0763918C673.433 141.735 596.712 255.513 532.388 284.199H532.27C531.099 284.73 529.94 285.213 528.795 285.682C528.636 285.78 528.492 285.792 528.371 285.848C528.034 285.983 527.722 286.089 527.383 286.225C527.223 286.32 527.082 286.352 526.937 286.408C526.394 286.603 525.863 286.765 525.332 286.977C525.102 287.075 524.887 287.134 524.669 287.21C524.408 287.311 524.142 287.397 523.872 287.47C523.631 287.564 523.377 287.635 523.1 287.741C522.87 287.836 522.628 287.877 522.412 287.971C521.94 288.107 521.51 288.222 521.038 288.384C520.843 288.384 520.663 288.49 520.46 288.544C520.168 288.638 519.84 288.706 519.528 288.794C519.312 288.889 519.132 288.921 518.902 288.968C518.578 289.063 518.215 289.151 517.888 289.228L516.657 289.499C519.603 290.585 522.721 291.133 525.86 291.116C586.854 291.116 648.349 181.812 750.104 0.0439453H710.151L710.165 0.0763918Z" fill="url(#paint6_linear_305_101)"/>
<path d="M190.001 12.1199C190.039 12.1199 190.089 12.0255 190.11 12.0255C190.16 12.0255 190.234 12.0255 190.257 11.9312H190.334C190.67 11.8132 190.983 11.6804 191.322 11.5536C191.411 11.5536 191.455 11.5536 191.517 11.4592C191.603 11.4592 191.685 11.3619 191.771 11.3501C192.131 11.235 192.493 11.0993 192.833 10.9755H192.889C193.697 10.7336 194.446 10.4327 195.228 10.1525C195.34 10.1525 195.446 10.0581 195.579 10.0581C195.903 9.95192 196.242 9.83688 196.582 9.76019C196.738 9.66285 196.894 9.66285 197.039 9.61271C197.387 9.50947 197.726 9.39148 198.051 9.31479C198.198 9.31479 198.328 9.21745 198.437 9.2086C199.558 8.89888 200.67 8.60981 201.791 8.34139C201.947 8.34139 202.08 8.24405 202.248 8.2352C202.572 8.14081 202.876 8.08772 203.227 8.04053C203.372 7.94614 203.54 7.94614 203.708 7.89599C204.033 7.8016 204.348 7.7898 204.699 7.71311H204.926C205.605 7.57448 206.292 7.46239 206.967 7.33555H207.377C207.702 7.24116 207.991 7.22936 208.318 7.17037C208.495 7.17037 208.678 7.07598 208.849 7.07598C209.15 7.07598 209.451 6.97864 209.752 6.94029C209.911 6.94029 210.065 6.94029 210.247 6.84295C210.958 6.74856 211.693 6.71022 212.442 6.65123C210.286 6.43444 208.12 6.32124 205.953 6.31201C137.266 6.31201 42.6288 133.759 0 298.806H8.21487C21.8571 274.477 34.1131 251.46 45.3219 229.854C75.1756 112.949 135.986 33.2249 190.004 12.1022" fill="url(#paint7_linear_305_101)"/>
<path d="M228.665 59.0788C236.098 51.966 243.911 45.2604 252.068 38.9915C250.408 35.3014 248.547 31.7052 246.493 28.2192C240.21 35.8442 234.467 45.9055 228.665 59.0788Z" fill="#0D82CA"/>
<path d="M234.308 13.0875C238.794 16.8513 242.812 22.025 246.49 28.2282C247.649 26.8035 248.82 25.488 250.039 24.2579C244.936 19.4942 239.42 15.5859 233.438 12.6421C233.68 12.7748 233.922 12.884 234.172 12.9902C234.172 12.9902 234.267 13.0875 234.308 13.0875Z" fill="#0D82CA"/>
<path d="M45.3159 229.868C107.949 109.176 137.623 32.7913 190.001 12.114C135.995 33.2514 75.1726 112.975 45.3189 229.868" fill="url(#paint8_linear_305_101)"/>
<path d="M250.033 24.2549C248.815 25.4967 247.658 26.8005 246.487 28.2252C248.543 31.7114 250.408 35.3064 252.074 38.9944C254.35 37.2613 256.654 35.565 258.985 33.9062C256.23 30.484 253.239 27.2589 250.033 24.2549Z" fill="#127BCA"/>
<path d="M73.7508 298.278C73.3644 298.375 72.978 298.375 72.6152 298.413H72.3999C72.0725 298.413 71.7332 298.511 71.4324 298.511H71.276C70.4914 298.605 69.7186 298.605 68.9723 298.664H68.7305C132.122 296.891 161.097 265.153 175.479 219.12C186.408 184.222 195.381 154.823 203.248 130.155C176.695 167.527 150.024 212.076 123.208 261.982C110.277 286.033 90.6142 296.08 73.7479 298.233" fill="url(#paint9_linear_305_101)"/>
<path d="M73.751 298.254C90.6143 296.106 110.277 286.072 123.208 262.002C150.024 212.111 176.71 167.55 203.233 130.178C212.885 99.8847 220.849 76.7002 228.665 59.0522C175.792 109.38 122.713 193.062 73.748 298.23" fill="url(#paint10_linear_305_101)"/>
<path d="M45.316 229.871C34.1072 251.475 21.8513 274.491 8.20898 298.823H32.1044C35.1221 275.599 39.5339 252.577 45.316 229.883" fill="#05A1E6"/>
<path d="M210.244 6.9048C210.05 6.9048 209.905 6.99919 209.737 6.99919C209.448 7.09653 209.147 7.09653 208.843 7.12602C208.666 7.12602 208.495 7.12602 208.312 7.22336C207.988 7.31775 207.687 7.3266 207.371 7.38854C207.227 7.38854 207.082 7.38854 206.961 7.48293C206.274 7.59797 205.599 7.72481 204.926 7.83985H204.696C204.345 7.93719 204.029 7.98733 203.705 8.03453C203.537 8.12892 203.369 8.12891 203.209 8.16726C202.885 8.2646 202.561 8.30295 202.245 8.36194C202.077 8.45633 201.944 8.45633 201.788 8.46518C200.667 8.73655 199.555 9.02562 198.434 9.33534C198.316 9.33534 198.192 9.42972 198.048 9.45037C197.711 9.54476 197.384 9.6421 197.033 9.74829C196.888 9.84563 196.72 9.84563 196.576 9.88398C196.24 9.97701 195.905 10.0763 195.573 10.1819C195.443 10.1819 195.334 10.2763 195.213 10.2763C194.44 10.5654 193.679 10.8574 192.883 11.0963C192.546 11.2025 192.184 11.3382 191.821 11.465C191.676 11.5594 191.546 11.583 191.378 11.6479C191.039 11.7541 190.7 11.8898 190.387 12.0136C190.269 12.111 190.145 12.1198 190.063 12.17C137.685 32.8473 108.008 109.229 45.3779 229.921C39.5907 252.615 35.1797 275.638 32.1692 298.864H35.523C44.9679 298.864 47.6344 298.767 58.501 298.767H69.0343C69.7806 298.673 70.5534 298.673 71.3351 298.611H71.4826C71.807 298.611 72.1315 298.516 72.4471 298.516H72.6772C73.0252 298.516 73.4235 298.422 73.8099 298.381C122.775 193.213 175.851 109.53 228.727 59.2027C234.538 46.0323 240.269 35.971 246.543 28.3578C242.874 22.1576 238.856 16.9721 234.37 13.2083C229.883 9.44447 234.249 13.2083 234.24 13.1109C233.984 13.0077 233.745 12.8809 233.491 12.757C233.237 12.6183 233.019 12.5121 232.753 12.3794C232.507 12.2756 232.266 12.1594 232.031 12.0313C231.718 11.934 231.464 11.7983 231.187 11.6744C230.957 11.5771 230.754 11.4798 230.524 11.3854C230.056 11.204 229.594 11.0102 229.137 10.8043C228.931 10.7099 228.739 10.6568 228.547 10.5831C228.196 10.4553 227.849 10.3176 227.506 10.1701C227.338 10.0728 227.146 10.0521 226.951 9.98426C226.459 9.81908 225.975 9.64505 225.518 9.49167H225.397C224.842 9.30879 224.3 9.1731 223.733 9.01972C223.601 8.92238 223.492 8.92238 223.359 8.90173C222.863 8.769 222.43 8.63626 221.961 8.50942C221.843 8.50942 221.731 8.41208 221.636 8.41208C220.483 8.11655 219.319 7.86271 218.147 7.65107C218.029 7.65107 217.908 7.55373 217.787 7.55373C217.288 7.4545 216.785 7.37382 216.28 7.31185C216.156 7.21746 216.085 7.21746 215.979 7.21746C215.385 7.12643 214.789 7.04873 214.191 6.98444H213.878C213.395 6.89005 212.949 6.8812 212.504 6.83105C211.743 6.92544 211.02 6.96674 210.306 7.03458" fill="url(#paint11_linear_305_101)"/>
<path d="M566.684 78.4996C554.635 117.102 544.874 148.947 536.382 175.149C569.448 129.647 602.018 72.4055 633.034 6.35034C596.856 17.7125 577.554 43.7228 566.684 78.4996Z" fill="url(#paint12_linear_305_101)"/>
<path d="M537.432 281.786C535.745 282.647 534.055 283.464 532.388 284.199C596.712 255.513 673.433 141.735 710.166 0.076416H702.721C618.33 150.829 591.187 251.749 537.432 281.786Z" fill="url(#paint13_linear_305_101)"/>
<path d="M495.432 269.123C509.425 252.041 520.825 223.005 536.388 175.149C518.436 199.808 500.366 221.002 482.282 238.29C482.282 238.384 482.282 238.384 482.188 238.443C486.134 250.266 490.464 260.699 495.396 269.12" fill="#079AE1"/>
<path d="M495.432 269.123C490.668 274.934 485.624 279.364 480.017 282.644C478.784 283.358 477.542 284.03 476.276 284.65C482.363 287.946 489.024 290.046 495.901 290.835C496.962 290.942 498.013 291.039 499.11 291.116H499.305C499.797 291.116 500.319 291.116 500.85 291.21H506.083C506.275 291.21 506.475 291.21 506.67 291.116C507.045 291.116 507.443 291.116 507.826 291.018H508.398C508.794 291.018 509.227 290.924 509.652 290.883H509.749C509.873 290.883 510.009 290.788 510.133 290.788C510.575 290.691 511.041 290.653 511.475 290.585H511.87C512.36 290.49 512.87 290.428 513.375 290.334H513.619C514.631 290.139 515.619 289.951 516.622 289.697C508.322 286.659 501.372 279.491 495.39 269.285" fill="#1969BC"/>
<path d="M376.849 291.21C382.869 291.21 388.948 290.62 395.054 289.449C400.7 288.426 406.357 286.853 412.026 284.877C416.755 287.199 421.761 288.906 426.922 289.957C431.108 290.802 435.368 291.222 439.638 291.21H376.849Z" fill="#1E5CB3"/>
<path d="M439.638 291.21C454.502 291.21 466.274 289.449 476.274 284.647C482.361 287.945 489.023 290.047 495.901 290.838C496.963 290.942 498.013 291.039 499.11 291.116H499.305C499.797 291.116 500.319 291.116 500.85 291.213H502.653H439.597L439.638 291.21Z" fill="#1E5CB3"/>
<path d="M502.688 291.21H506.127C506.334 291.21 506.522 291.21 506.717 291.116C507.092 291.116 507.49 291.116 507.888 291.018H508.457C508.853 291.018 509.286 290.924 509.699 290.886H509.805C509.932 290.886 510.056 290.791 510.183 290.791C510.625 290.694 511.089 290.656 511.522 290.585C511.667 290.585 511.782 290.585 511.935 290.49C512.428 290.396 512.938 290.346 513.445 290.251H513.687C514.699 290.057 515.687 289.865 516.69 289.614C519.636 290.7 522.753 291.248 525.893 291.231L502.708 291.325L502.688 291.21Z" fill="#1D60B5"/>
<path d="M482.226 238.446V238.349C475.883 244.441 469.266 250.242 462.395 255.731C459.016 258.423 455.56 261.018 452.033 263.513C454.938 266.987 457.897 270.244 461.009 273.214C465.737 277.795 470.79 281.656 476.303 284.635C477.56 284.016 478.813 283.343 480.031 282.632C485.653 279.352 490.694 274.925 495.458 269.111C490.526 260.69 486.196 250.257 482.25 238.434" fill="#175FAB"/>
<path d="M679.15 0.076416H641.686C639.662 0.173756 637.695 0.241598 635.754 0.365485C634.837 2.33292 633.896 4.30036 632.99 6.2796C601.977 72.3348 569.407 129.576 536.341 175.078C520.79 222.931 509.381 251.968 495.387 269.049C501.369 279.255 508.331 286.432 516.604 289.473C516.846 289.375 517.041 289.375 517.256 289.325H517.392C517.537 289.325 517.693 289.231 517.849 289.231C518.186 289.134 518.548 289.075 518.888 288.971C519.103 288.874 519.283 288.865 519.501 288.794C519.817 288.7 520.141 288.632 520.43 288.555C520.625 288.458 520.817 288.429 521.008 288.39C521.492 288.234 521.926 288.119 522.386 287.974C522.601 287.88 522.831 287.797 523.073 287.741C523.339 287.647 523.604 287.579 523.846 287.464C524.123 287.367 524.401 287.317 524.642 287.213C524.858 287.116 525.085 287.057 525.291 286.971C525.834 286.777 526.365 286.615 526.908 286.402C527.055 286.402 527.2 286.266 527.356 286.237C527.681 286.101 528.02 285.995 528.344 285.851C528.462 285.753 528.61 285.744 528.766 285.694C529.902 285.222 531.07 284.738 532.241 284.21H532.362C534.062 283.454 535.74 282.649 537.394 281.798C591.158 251.761 618.304 150.841 702.694 0.0882147H679.123L679.15 0.076416Z" fill="url(#paint14_linear_305_101)"/>
<path d="M212.445 6.70147C212.578 6.70147 212.696 6.70147 212.828 6.79586C213.153 6.79586 213.477 6.79586 213.805 6.90205H214.129C214.722 6.99644 215.315 7.04953 215.917 7.13507C216.026 7.13507 216.123 7.13507 216.218 7.22946C216.713 7.32385 217.221 7.40644 217.725 7.48018C217.837 7.48018 217.979 7.57752 218.1 7.57752C219.259 7.8076 220.442 8.04947 221.574 8.34739C221.683 8.34739 221.792 8.44473 221.887 8.44473C222.371 8.55977 222.804 8.7043 223.288 8.83999C223.435 8.83999 223.542 8.93438 223.671 8.95798C224.241 9.10251 224.772 9.24704 225.326 9.42992C225.35 9.42992 225.385 9.42992 225.447 9.52431C225.919 9.66885 226.4 9.85173 226.895 10.0169C227.09 10.1113 227.27 10.1526 227.45 10.1998C227.789 10.3473 228.164 10.4889 228.488 10.6245C228.683 10.6245 228.872 10.7602 229.078 10.831C229.524 11.0316 229.993 11.2145 230.453 11.4062C230.695 11.5036 230.898 11.6127 231.131 11.6982C231.397 11.8339 231.671 11.9578 231.96 12.0522C232.202 12.1702 232.467 12.2941 232.697 12.4003C232.951 12.5389 233.19 12.6421 233.435 12.7778C239.417 15.7216 244.93 19.6417 250.033 24.3966C251.86 22.4726 253.827 20.6861 255.917 19.0518C244.759 11.1348 232.119 6.62183 217.533 6.62183C215.846 6.62183 214.156 6.71917 212.442 6.846" fill="#7DCBEC"/>
<path d="M250.033 24.255C253.239 27.2591 256.23 30.4841 258.985 33.9064C261.668 32.0236 264.394 30.2041 267.162 28.4495C263.689 24.9531 259.923 21.7607 255.906 18.9072C253.815 20.5384 251.851 22.3251 250.03 24.2521" fill="#5EC5ED"/>
<path d="M212.439 6.69847C214.15 6.55394 215.84 6.49199 217.53 6.49199C232.113 6.49199 244.756 11.005 255.914 18.9102C267.69 9.61866 281.922 6.374 301.693 6.374H205.947C208.159 6.374 210.315 6.50674 212.439 6.69847Z" fill="url(#paint15_linear_305_101)"/>
<path d="M301.694 6.37404C281.922 6.37404 267.69 9.61869 255.914 18.9102C259.926 21.7659 263.687 24.9571 267.159 28.4495C283.55 18.0282 299.788 11.126 315.799 8.1114C321.799 6.97044 327.891 6.38883 333.998 6.37404H301.694Z" fill="url(#paint16_linear_305_101)"/>
<path d="M536.382 175.173C544.886 148.95 554.623 117.114 566.696 78.4996C577.58 43.7081 596.842 17.7008 633.02 6.35037C633.975 4.40653 634.878 2.4037 635.807 0.439209C576.831 3.97293 549.266 33.9742 535.394 78.4023C511.136 155.967 496.44 206.247 482.291 238.287C500.363 221.014 518.433 199.805 536.382 175.173Z" fill="url(#paint17_linear_305_101)"/>
<path d="M622.908 270.548H616.224V291.322H613.499V270.548H606.788V268.076H622.905L622.908 270.548ZM650.272 291.316H647.559V275.707C647.559 274.477 647.653 272.969 647.78 271.194C647.5 272.255 647.27 272.993 647.057 273.465L639.143 291.316H637.816L629.881 273.598C629.645 273.105 629.415 272.306 629.164 271.196H629.07C629.164 272.132 629.197 273.645 629.197 275.745V291.319H626.589V268.073H630.188L637.314 284.296C637.854 285.514 638.193 286.455 638.364 287.083H638.471C638.943 285.803 639.326 284.851 639.592 284.222L646.865 268.073H650.29V291.316H650.272Z" fill="white"/>
<defs>
<linearGradient id="paint0_linear_305_101" x1="18091.8" y1="-12820.8" x2="18091.8" y2="85547.6" gradientUnits="userSpaceOnUse">
<stop stop-color="#0994DC"/>
<stop offset="0.35" stop-color="#66CEF5"/>
<stop offset="0.846" stop-color="#127BCA"/>
<stop offset="1" stop-color="#127BCA"/>
</linearGradient>
<linearGradient id="paint1_linear_305_101" x1="18987.6" y1="-13156.6" x2="18987.6" y2="87717.1" gradientUnits="userSpaceOnUse">
<stop stop-color="#0E76BC"/>
<stop offset="0.36" stop-color="#36AEE8"/>
<stop offset="0.846" stop-color="#00ADEF"/>
<stop offset="1" stop-color="#00ADEF"/>
</linearGradient>
<linearGradient id="paint2_linear_305_101" x1="18119.5" y1="76013.8" x2="18119.5" y2="-4251.54" gradientUnits="userSpaceOnUse">
<stop stop-color="#1C63B7"/>
<stop offset="0.5" stop-color="#33BDF2"/>
<stop offset="1" stop-color="#33BDF2" stop-opacity="0.42"/>
</linearGradient>
<linearGradient id="paint3_linear_305_101" x1="17928.9" y1="-13696.2" x2="17928.9" y2="91038.1" gradientUnits="userSpaceOnUse">
<stop stop-color="#166AB8"/>
<stop offset="0.4" stop-color="#36AEE8"/>
<stop offset="0.846" stop-color="#0798DD"/>
<stop offset="1" stop-color="#0798DD"/>
</linearGradient>
<linearGradient id="paint4_linear_305_101" x1="23094.2" y1="-14563.4" x2="23094.2" y2="96807.9" gradientUnits="userSpaceOnUse">
<stop stop-color="#124379"/>
<stop offset="0.39" stop-color="#1487CB"/>
<stop offset="0.78" stop-color="#165197"/>
<stop offset="1" stop-color="#165197"/>
</linearGradient>
<linearGradient id="paint5_linear_305_101" x1="203.245" y1="12576.6" x2="260.525" y2="12576.6" gradientUnits="userSpaceOnUse">
<stop stop-color="#33BDF2" stop-opacity="0.698"/>
<stop offset="1" stop-color="#1DACD8"/>
</linearGradient>
<linearGradient id="paint6_linear_305_101" x1="31467.1" y1="75769.2" x2="31467.1" y2="-2420.61" gradientUnits="userSpaceOnUse">
<stop stop-color="#136AB4"/>
<stop offset="0.6" stop-color="#59CAF5" stop-opacity="0.549"/>
<stop offset="1" stop-color="#59CAF5" stop-opacity="0.235"/>
</linearGradient>
<linearGradient id="paint7_linear_305_101" x1="-0.563201" y1="40212.4" x2="56319.5" y2="40212.4" gradientUnits="userSpaceOnUse">
<stop stop-color="#05A1E6" stop-opacity="0.247"/>
<stop offset="1" stop-color="#05A1E6"/>
</linearGradient>
<linearGradient id="paint8_linear_305_101" x1="19223.1" y1="74432.7" x2="19223.1" y2="-5627.77" gradientUnits="userSpaceOnUse">
<stop stop-color="#318ED5"/>
<stop offset="1" stop-color="#38A7E4"/>
</linearGradient>
<linearGradient id="paint9_linear_305_101" x1="17899.2" y1="42380" x2="17899.2" y2="-35441.7" gradientUnits="userSpaceOnUse">
<stop stop-color="#05A1E6"/>
<stop offset="1" stop-color="#05A1E6" stop-opacity="0.549"/>
</linearGradient>
<linearGradient id="paint10_linear_305_101" x1="20608.6" y1="65826.9" x2="20608.6" y2="65.6295" gradientUnits="userSpaceOnUse">
<stop stop-color="#1959A6"/>
<stop offset="0.5" stop-color="#05A1E6"/>
<stop offset="0.918" stop-color="#7EC5EA"/>
<stop offset="1" stop-color="#7EC5EA"/>
</linearGradient>
<linearGradient id="paint11_linear_305_101" x1="34020.1" y1="75931.4" x2="12460.4" y2="7604.61" gradientUnits="userSpaceOnUse">
<stop stop-color="#165096"/>
<stop offset="1" stop-color="#0D82CA"/>
</linearGradient>
<linearGradient id="paint12_linear_305_101" x1="13346.7" y1="35738.1" x2="13346.7" y2="-1524.58" gradientUnits="userSpaceOnUse">
<stop stop-color="#05A1E6"/>
<stop offset="0.874" stop-color="#0495D6"/>
<stop offset="1" stop-color="#0495D6"/>
</linearGradient>
<linearGradient id="paint13_linear_305_101" x1="31291" y1="-3250.11" x2="-2423.6" y2="74378.6" gradientUnits="userSpaceOnUse">
<stop stop-color="#38A7E4" stop-opacity="0.329"/>
<stop offset="0.962" stop-color="#0E88D3"/>
<stop offset="1" stop-color="#0E88D3"/>
</linearGradient>
<linearGradient id="paint14_linear_305_101" x1="27984" y1="-235.423" x2="27984" y2="81058.2" gradientUnits="userSpaceOnUse">
<stop stop-color="#168CD4"/>
<stop offset="0.5" stop-color="#1C87CC"/>
<stop offset="1" stop-color="#154B8D"/>
</linearGradient>
<linearGradient id="paint15_linear_305_101" x1="4438.34" y1="-7065.76" x2="4776.03" y2="1408.64" gradientUnits="userSpaceOnUse">
<stop stop-color="#97D6EE"/>
<stop offset="0.703" stop-color="#55C1EA"/>
<stop offset="1" stop-color="#55C1EA"/>
</linearGradient>
<linearGradient id="paint16_linear_305_101" x1="1682.19" y1="-353.896" x2="3190.68" y2="-9226.54" gradientUnits="userSpaceOnUse">
<stop stop-color="#7ACCEC"/>
<stop offset="1" stop-color="#3FB7ED"/>
</linearGradient>
<linearGradient id="paint17_linear_305_101" x1="20830.3" y1="4161.14" x2="20830.3" y2="83672.9" gradientUnits="userSpaceOnUse">
<stop stop-color="#1DA7E7"/>
<stop offset="1" stop-color="#37ABE7" stop-opacity="0"/>
</linearGradient>
</defs>
</svg>
