<svg width="816" height="811" viewBox="0 0 816 811" fill="none" xmlns="http://www.w3.org/2000/svg">
<path fill-rule="evenodd" clip-rule="evenodd" d="M407.73 519.62C532.832 519.62 634.247 468.509 634.247 405.465C634.247 342.421 532.832 291.31 407.73 291.31C282.631 291.31 181.213 342.421 181.213 405.465C181.213 468.509 282.631 519.62 407.73 519.62Z" fill="#6E81B6"/>
<path fill-rule="evenodd" clip-rule="evenodd" d="M453.637 442.361L464.873 384.855C467.409 371.876 465.3 362.195 458.608 356.077C452.125 350.158 441.119 347.279 424.964 347.279H405.506L411.071 318.788C411.176 318.257 411.161 317.711 411.027 317.187C410.894 316.663 410.646 316.175 410.301 315.758C409.955 315.341 409.521 315.005 409.03 314.774C408.539 314.544 408.002 314.424 407.459 314.424H380.602C378.838 314.424 377.323 315.669 376.986 317.39L365.052 378.44C363.967 371.571 361.294 365.665 357.016 360.792C349.138 351.825 336.678 347.279 319.978 347.279H267.924C266.16 347.279 264.645 348.524 264.309 350.243L240.158 473.819C239.947 474.895 240.229 476.001 240.93 476.846C241.629 477.693 242.67 478.18 243.774 478.18H270.841C272.605 478.18 274.12 476.936 274.457 475.211L280.299 445.322H300.448C311.021 445.322 319.906 444.184 326.842 441.939C333.933 439.646 340.461 435.756 346.213 430.401C350.861 426.154 354.701 421.399 357.657 416.27L352.833 440.959C352.622 442.035 352.904 443.146 353.605 443.985C354.304 444.832 355.347 445.32 356.449 445.32H383.305C385.069 445.32 386.584 444.075 386.921 442.356L400.175 374.523H418.604C426.457 374.523 428.758 376.079 429.385 376.746C429.952 377.356 431.13 379.505 429.807 386.28L419.124 440.956C419.022 441.486 419.038 442.032 419.173 442.555C419.307 443.078 419.556 443.565 419.901 443.982C420.246 444.398 420.68 444.734 421.17 444.965C421.661 445.196 422.197 445.316 422.74 445.317H450.024C450.878 445.319 451.705 445.024 452.365 444.485C453.024 443.946 453.474 443.195 453.637 442.361V442.361ZM329.123 394.846C327.436 403.467 324.259 409.615 319.674 413.121C315.017 416.692 307.57 418.5 297.536 418.5H285.539L294.214 374.107H309.725C321.12 374.107 325.711 376.528 327.554 378.558C330.11 381.374 330.652 387.01 329.123 394.846V394.846ZM566.764 360.792C558.889 351.825 546.429 347.279 529.729 347.279H477.675C475.908 347.279 474.396 348.524 474.059 350.243L449.912 473.819C449.698 474.895 449.98 476.001 450.681 476.846C451.383 477.69 452.426 478.18 453.522 478.18H480.592C482.359 478.18 483.871 476.936 484.208 475.211L490.05 445.322H510.202C520.777 445.322 529.655 444.184 536.593 441.939C543.687 439.646 550.214 435.756 555.963 430.401C560.762 426.018 564.709 421.091 567.7 415.771C570.692 410.451 572.836 404.519 574.088 398.134C577.164 382.387 574.702 369.825 566.764 360.792V360.792ZM540.411 394.846C538.721 403.467 535.544 409.615 530.964 413.121C526.305 416.692 518.857 418.5 508.827 418.5H496.827L505.499 374.107H521.013C532.407 374.107 536.998 376.528 538.844 378.558C541.394 381.374 541.939 387.01 540.411 394.846V394.846Z" fill="white"/>
<path fill-rule="evenodd" clip-rule="evenodd" d="M308.955 370.444C319.238 370.444 326.094 372.331 329.52 376.107C332.944 379.882 333.76 386.365 331.969 395.547C330.095 405.11 326.491 411.936 321.15 416.028C315.808 420.119 307.679 422.162 296.766 422.162H280.299L290.406 370.444H308.955ZM243 474.517H270.068L276.491 441.665H299.678C309.908 441.665 318.326 440.594 324.932 438.456C331.539 436.318 337.546 432.736 342.95 427.705C347.486 423.562 351.156 418.986 353.967 413.985C356.774 408.984 358.768 403.468 359.949 397.434C362.814 382.786 360.653 371.375 353.471 363.204C346.292 355.029 334.867 350.944 319.207 350.944H267.154L243 474.517V474.517ZM379.829 318.088H406.686L400.265 350.944H424.194C439.243 350.944 449.632 353.553 455.346 358.775C461.06 363.996 462.771 372.459 460.487 384.158L449.251 441.665H421.967L432.65 386.986C433.863 380.764 433.419 376.523 431.308 374.26C429.196 371.999 424.701 370.866 417.831 370.866H396.368L382.533 441.665H355.676L379.829 318.088ZM520.243 370.444C530.526 370.444 537.379 372.331 540.808 376.107C544.232 379.882 545.046 386.365 543.254 395.547C541.386 405.11 537.782 411.936 532.438 416.028C527.099 420.119 518.967 422.162 508.06 422.162H491.592L501.697 370.444H520.243V370.444ZM454.283 474.517H481.353L487.774 441.665H510.96C521.194 441.665 529.611 440.594 536.217 438.456C542.824 436.318 548.831 432.736 554.235 427.705C558.771 423.562 562.442 418.986 565.249 413.985C568.057 408.984 570.053 403.468 571.237 397.434C574.099 382.786 571.938 371.375 564.759 363.204C557.574 355.029 546.152 350.944 530.493 350.944H478.439L454.283 474.517V474.517Z" fill="black"/>
</svg>
