<svg width="919" height="643" viewBox="0 0 919 643" fill="none" xmlns="http://www.w3.org/2000/svg">
<path d="M459.749 221.189C476.886 221.189 490.778 207.374 490.778 190.332C490.778 173.29 476.886 159.475 459.749 159.475C442.612 159.475 428.72 173.29 428.72 190.332C428.72 207.374 442.612 221.189 459.749 221.189Z" fill="#61DAFB"/>
<path fill-rule="evenodd" clip-rule="evenodd" d="M313.849 174.095C306.813 180.412 304.5 185.919 304.5 190.331C304.5 194.743 306.813 200.25 313.849 206.567C320.881 212.88 331.691 219.08 346.01 224.516C374.567 235.359 414.776 242.3 459.748 242.3C504.72 242.3 544.93 235.359 573.487 224.516C587.805 219.08 598.615 212.88 605.647 206.567C612.683 200.25 614.996 194.743 614.996 190.331C614.996 185.919 612.683 180.412 605.647 174.095C598.615 167.783 587.805 161.583 573.487 156.146C544.93 145.303 504.72 138.362 459.748 138.362C414.776 138.362 374.567 145.303 346.01 156.146C331.691 161.583 320.881 167.783 313.849 174.095ZM338.023 135.111C369.726 123.074 412.765 115.862 459.748 115.862C506.731 115.862 549.77 123.074 581.474 135.111C597.286 141.115 610.859 148.538 620.677 157.352C630.491 166.162 637.496 177.285 637.496 190.331C637.496 203.377 630.491 214.5 620.677 223.31C610.859 232.125 597.286 239.547 581.474 245.551C549.77 257.589 506.731 264.8 459.748 264.8C412.765 264.8 369.726 257.589 338.023 245.551C322.211 239.547 308.638 232.125 298.819 223.31C289.005 214.5 282 203.377 282 190.331C282 177.285 289.005 166.162 298.819 157.352C308.638 148.538 322.211 141.115 338.023 135.111Z" fill="#61DAFB"/>
<path fill-rule="evenodd" clip-rule="evenodd" d="M401.029 56.5872C392.021 53.6892 386.037 54.4365 382.147 56.6698C378.258 58.903 374.615 63.6826 372.635 72.8893C370.654 82.0967 370.66 94.498 373.083 109.538C377.916 139.536 391.97 177.62 414.449 216.339C436.928 255.058 463.068 286.203 486.776 305.365C498.662 314.971 509.459 321.177 518.467 324.075C527.475 326.973 533.459 326.226 537.348 323.993C541.238 321.759 544.881 316.98 546.861 307.773C548.841 298.566 548.836 286.164 546.413 271.125C541.58 241.126 527.526 203.042 505.047 164.323C482.568 125.605 456.428 94.4591 432.72 75.2975C420.834 65.6909 410.037 59.4853 401.029 56.5872ZM446.903 57.8774C473.251 79.1727 501.061 112.646 524.559 153.12C548.057 193.594 563.303 234.281 568.675 267.62C571.354 284.249 571.676 299.658 568.908 312.526C566.141 325.395 559.959 336.955 548.646 343.451C537.332 349.946 524.174 349.49 511.583 345.439C498.993 341.389 485.735 333.407 472.593 322.785C446.245 301.49 418.435 268.016 394.937 227.542C371.439 187.068 356.192 146.381 350.821 113.042C348.142 96.4132 347.82 81.0041 350.587 68.1362C353.355 55.2676 359.537 43.7068 370.85 37.2114C382.164 30.716 395.322 31.1725 407.913 35.2231C420.503 39.2734 433.761 47.2556 446.903 57.8774Z" fill="#61DAFB"/>
<path fill-rule="evenodd" clip-rule="evenodd" d="M546.862 72.8888C544.882 63.6821 541.239 58.9026 537.349 56.6693C533.459 54.436 527.476 53.6887 518.468 56.5867C509.459 59.4849 498.662 65.6905 486.776 75.297C463.068 94.4586 436.929 125.604 414.45 164.323C391.971 203.041 377.917 241.126 373.084 271.124C370.661 286.164 370.655 298.565 372.636 307.772C374.616 316.979 378.258 321.759 382.148 323.992C386.038 326.225 392.021 326.973 401.029 324.075C410.038 321.176 420.835 314.971 432.721 305.364C456.429 286.203 482.568 255.057 505.047 216.339C527.526 177.62 541.58 139.536 546.413 109.537C548.836 94.4975 548.842 82.0962 546.862 72.8888ZM568.675 113.042C563.304 146.381 548.058 187.068 524.56 227.542C501.062 268.015 473.252 301.489 446.904 322.784C433.762 333.406 420.504 341.388 407.914 345.439C395.323 349.489 382.164 349.946 370.851 343.45C359.538 336.955 353.356 325.394 350.588 312.526C347.82 299.658 348.143 284.249 350.822 267.62C356.193 234.281 371.439 193.594 394.937 153.12C418.435 112.646 446.245 79.1722 472.593 57.877C485.735 47.2551 498.993 39.2729 511.584 35.2226C524.174 31.172 537.333 30.7155 548.646 37.2109C559.959 43.7064 566.141 55.2671 568.909 68.1357C571.677 81.0036 571.354 96.4127 568.675 113.042Z" fill="#61DAFB"/>
<path d="M168.716 398.695V582H139.179L52.8075 457.142H51.2859V582H18.0799V398.695H47.7953L134.077 523.643H135.688V398.695H168.716ZM228.437 582H192.994L257.526 398.695H298.519L363.141 582H327.697L278.739 436.287H277.307L228.437 582ZM229.601 510.128H326.265V536.8H229.601V510.128ZM357.077 426.531V398.695H503.327V426.531H446.671V582H413.733V426.531H357.077ZM564.727 398.695V582H531.521V398.695H564.727ZM625.209 398.695L672.915 542.976H674.795L722.411 398.695H758.929L694.307 582H653.314L588.781 398.695H625.209ZM783.073 582V398.695H902.292V426.531H816.279V476.295H896.116V504.131H816.279V554.164H903.008V582H783.073Z" fill="#61DAFB"/>
</svg>
