<svg width="344" height="180" viewBox="0 0 344 180" fill="none" xmlns="http://www.w3.org/2000/svg">
<path d="M167.045 7.63208H335.884V170.954H167.045V7.63208Z" fill="#2E001E"/>
<path d="M159.37 0V178.586H343.559V0H159.37ZM167.045 7.63187H335.884V170.954H167.045V7.63187Z" fill="#FF2BC2"/>
<path d="M293.137 75.0213C291.986 74.4871 290.528 74.2582 288.686 74.2582C279.016 74.2582 272.569 81.6611 272.569 93.9483C272.569 107.991 279.17 113.639 287.765 113.639C289.607 113.639 291.602 113.41 293.06 112.799V75.0213H293.137ZM258.755 94.5589C258.755 76.7767 270.267 62.8867 289.146 62.8867C290.758 62.8867 291.602 62.8867 293.137 63.0393V43.1965C293.137 42.7386 293.521 42.4333 293.905 42.4333H306.261C306.874 42.4333 307.028 42.6623 307.028 43.0439V112.799C307.028 114.86 307.028 117.454 307.412 120.278C307.412 120.812 307.412 120.889 306.951 121.118C300.505 124.17 293.751 125.544 287.304 125.544C270.651 125.544 258.755 115.318 258.755 94.5589ZM232.585 82.1953L254.074 123.636C254.458 124.247 254.227 124.857 253.613 124.857H240.26C239.416 124.857 239.032 124.628 238.648 123.865C233.736 113.791 228.748 103.336 223.606 92.4983H223.453C218.848 102.725 213.783 113.867 208.871 123.942C208.487 124.552 208.104 124.781 207.49 124.781H194.75C193.982 124.781 193.906 124.171 194.289 123.713L215.318 83.4927L194.98 43.5018C194.52 42.8912 194.98 42.357 195.517 42.357H208.718C209.485 42.357 209.869 42.5096 210.099 43.1965C214.934 53.3469 219.846 63.3446 224.45 73.5713H224.604C229.055 63.4972 233.967 53.3469 238.648 43.3491C239.032 42.7386 239.262 42.357 240.029 42.357H252.385C252.999 42.357 253.23 42.8149 252.846 43.5018L232.585 82.1953Z" fill="#FF2BC2"/>
<path d="M29.8426 179.056C46.3157 179.056 59.6852 165.686 59.6852 149.213V119.371H29.8426C13.3695 119.371 0 132.74 0 149.213C0 165.686 13.3695 179.056 29.8426 179.056Z" fill="#0ACF83"/>
<path d="M0 89.5276C0 73.0545 13.3695 59.6851 29.8426 59.6851H59.6852V119.37H29.8426C13.3695 119.37 0 106.001 0 89.5276Z" fill="#A259FF"/>
<path d="M0 29.8426C0 13.3695 13.3695 0 29.8426 0H59.6852V59.6851H29.8426C13.3695 59.6851 0 46.3157 0 29.8426Z" fill="#F24E1E"/>
<path d="M59.6851 0H89.5277C106.001 0 119.37 13.3695 119.37 29.8426C119.37 46.3157 106.001 59.6851 89.5277 59.6851H59.6851V0Z" fill="#FF7262"/>
<path d="M119.37 89.5276C119.37 106.001 106.001 119.37 89.5277 119.37C73.0546 119.37 59.6851 106.001 59.6851 89.5276C59.6851 73.0545 73.0546 59.6851 89.5277 59.6851C106.001 59.6851 119.37 73.0545 119.37 89.5276Z" fill="#1ABCFE"/>
</svg>
