<svg width="1949" height="1653" viewBox="0 0 1949 1653" fill="none" xmlns="http://www.w3.org/2000/svg">
<rect width="1949" height="1653" fill="#69CE97"/>
<g clip-path="url(#clip0_1008_40747)">
<path fill-rule="evenodd" clip-rule="evenodd" d="M694.102 912.209V749.113H715.675L818.214 880.367V749.113H838.722V912.209H817.148L714.609 779.661V912.209H694.102ZM1005.71 905.737C992.131 910.656 977.482 913.245 962.035 913.245C901.31 913.245 870.948 885.027 870.948 828.331C870.948 774.743 900.245 747.819 958.839 747.819C975.618 747.819 991.332 750.149 1005.71 754.55V772.672C991.332 767.235 976.417 764.646 961.236 764.646C915.426 764.646 892.521 785.875 892.521 827.814C892.521 873.118 915.16 895.641 960.17 895.641C967.361 895.641 975.352 894.605 984.141 892.793V838.169H1005.71V905.737ZM1040.34 849.301V749.113H1061.91V849.301C1061.91 880.626 1077.89 896.417 1110.12 896.417C1142.08 896.417 1158.32 880.626 1158.32 849.301V749.113H1179.9V849.301C1179.9 892.016 1156.73 913.504 1110.12 913.504C1063.51 913.504 1040.34 892.016 1040.34 849.301ZM1240.09 749.113V895.123H1327.98V912.209H1218.52V749.113H1240.09ZM1359.14 912.209H1336.5L1419.87 727.626L1503.23 912.209H1479.26L1457.68 860.95H1402.29L1408.15 843.864H1450.49L1419.07 770.083L1359.14 912.209ZM1526.4 912.209V749.113H1598.04C1630 749.113 1645.98 762.057 1645.98 788.204C1645.98 809.433 1630.27 825.225 1599.11 835.321L1656.64 912.209H1628.14L1574.87 838.945V825.225C1606.83 820.306 1623.08 808.397 1623.08 789.24C1623.08 774.225 1614.29 766.717 1596.45 766.717H1548.5V912.209H1526.4Z" fill="#B52E31"/>
<path fill-rule="evenodd" clip-rule="evenodd" d="M293 705.62L464.786 646.077L641.1 704.585L612.602 925.411L464.786 1004.89L319.367 926.447L293 705.62Z" fill="#E23237"/>
<path fill-rule="evenodd" clip-rule="evenodd" d="M641.101 704.585L464.787 646.077V1004.89L612.603 925.411L641.101 704.585Z" fill="#B52E31"/>
<path fill-rule="evenodd" clip-rule="evenodd" d="M465.053 688.016L357.986 919.457L397.937 918.68L419.51 866.386H515.124L538.562 919.198L576.648 919.974L465.053 688.016ZM465.319 762.315L501.541 835.838H433.626L465.319 762.315Z" fill="white"/>
</g>
<defs>
<clipPath id="clip0_1008_40747">
<rect width="1363.64" height="360" fill="white" transform="translate(293 646)"/>
</clipPath>
</defs>
</svg>
