<svg width="1949" height="1653" viewBox="0 0 1949 1653" fill="none" xmlns="http://www.w3.org/2000/svg">
<rect width="1949" height="1653" fill="#846D77"/>
<path d="M724.547 778.466C724.547 792.534 726.069 803.941 728.73 812.306C731.772 820.671 735.575 829.796 740.899 839.682C742.8 842.723 743.561 845.765 743.561 848.427C743.561 852.229 741.279 856.031 736.336 859.833L712.379 875.802C708.957 878.084 705.534 879.224 702.492 879.224C698.69 879.224 694.887 877.323 691.084 873.901C685.761 868.198 681.197 862.115 677.395 856.031C673.592 849.567 669.79 842.343 665.607 833.598C635.946 868.578 598.68 886.068 553.809 886.068C521.867 886.068 496.39 876.943 477.757 858.693C459.124 840.442 449.617 816.108 449.617 785.69C449.617 753.372 461.025 727.136 484.221 707.365C507.417 687.594 538.218 677.708 577.386 677.708C590.315 677.708 603.624 678.849 617.693 680.75C631.763 682.651 646.213 685.693 661.424 689.114V661.358C661.424 632.462 655.34 612.31 643.551 600.523C631.383 588.736 610.849 583.033 581.568 583.033C568.259 583.033 554.57 584.554 540.5 587.976C526.43 591.398 512.741 595.58 499.432 600.903C493.347 603.565 488.784 605.086 486.122 605.846C483.461 606.607 481.559 606.987 480.038 606.987C474.715 606.987 472.053 603.185 472.053 595.2V576.569C472.053 570.486 472.813 565.923 474.715 563.262C476.616 560.6 480.038 557.939 485.362 555.277C498.671 548.433 514.642 542.73 533.275 538.167C551.908 533.224 571.682 530.943 592.596 530.943C637.847 530.943 670.93 541.209 692.225 561.741C713.14 582.273 723.787 613.451 723.787 655.275V778.466H724.547ZM570.161 836.26C582.709 836.26 595.638 833.978 609.328 829.416C623.017 824.853 635.186 816.488 645.453 805.082C651.537 797.857 656.1 789.873 658.382 780.747C660.663 771.622 662.184 760.596 662.184 747.668V731.699C651.157 729.038 639.368 726.756 627.2 725.235C615.032 723.714 603.244 722.954 591.455 722.954C565.978 722.954 547.345 727.897 534.796 738.163C522.247 748.429 516.163 762.877 516.163 781.888C516.163 799.758 520.726 813.066 530.233 822.191C539.359 831.697 552.669 836.26 570.161 836.26ZM875.512 877.323C868.667 877.323 864.104 876.183 861.062 873.521C858.02 871.24 855.358 865.917 853.076 858.693L763.715 564.783C761.433 557.178 760.292 552.235 760.292 549.574C760.292 543.49 763.334 540.068 769.418 540.068H806.684C813.909 540.068 818.853 541.209 821.515 543.871C824.557 546.152 826.838 551.475 829.12 558.699L893.004 810.405L952.325 558.699C954.226 551.095 956.508 546.152 959.55 543.871C962.592 541.589 967.916 540.068 974.761 540.068H1005.18C1012.41 540.068 1017.35 541.209 1020.39 543.871C1023.43 546.152 1026.1 551.475 1027.62 558.699L1087.7 813.446L1153.48 558.699C1155.77 551.095 1158.43 546.152 1161.09 543.871C1164.13 541.589 1169.08 540.068 1175.92 540.068H1211.28C1217.37 540.068 1220.79 543.11 1220.79 549.574C1220.79 551.475 1220.41 553.376 1220.03 555.657C1219.65 557.939 1218.89 560.98 1217.37 565.163L1125.73 859.073C1123.44 866.677 1120.78 871.62 1117.74 873.901C1114.7 876.183 1109.75 877.703 1103.29 877.703H1070.59C1063.36 877.703 1058.42 876.563 1055.38 873.901C1052.33 871.24 1049.67 866.297 1048.15 858.693L989.211 613.451L930.65 858.312C928.749 865.917 926.467 870.86 923.425 873.521C920.383 876.183 915.059 877.323 908.215 877.323H875.512ZM1364.15 887.589C1344.38 887.589 1324.6 885.308 1305.59 880.745C1286.58 876.183 1271.75 871.24 1261.86 865.536C1255.78 862.115 1251.59 858.312 1250.07 854.89C1248.55 851.468 1247.79 847.666 1247.79 844.244V824.853C1247.79 816.868 1250.83 813.066 1256.54 813.066C1258.82 813.066 1261.1 813.446 1263.38 814.207C1265.66 814.967 1269.08 816.488 1272.89 818.009C1285.82 823.712 1299.89 828.275 1314.72 831.317C1329.93 834.358 1344.76 835.879 1359.97 835.879C1383.92 835.879 1402.56 831.697 1415.49 823.332C1428.41 814.967 1435.26 802.8 1435.26 787.211C1435.26 776.565 1431.84 767.82 1424.99 760.596C1418.15 753.372 1405.22 746.908 1386.59 740.824L1331.45 723.714C1303.69 714.969 1283.15 702.042 1270.61 684.932C1258.06 668.202 1251.59 649.572 1251.59 629.8C1251.59 613.831 1255.01 599.763 1261.86 587.596C1268.7 575.429 1277.83 564.783 1289.24 556.418C1300.65 547.673 1313.58 541.209 1328.79 536.646C1344 532.084 1359.97 530.183 1376.7 530.183C1385.06 530.183 1393.81 530.563 1402.18 531.703C1410.92 532.844 1418.91 534.365 1426.89 535.886C1434.5 537.787 1441.72 539.688 1448.57 541.969C1455.41 544.251 1460.74 546.532 1464.54 548.813C1469.86 551.855 1473.67 554.897 1475.95 558.319C1478.23 561.361 1479.37 565.543 1479.37 570.866V588.736C1479.37 596.721 1476.33 600.903 1470.62 600.903C1467.58 600.903 1462.64 599.383 1456.17 596.341C1434.5 586.455 1410.16 581.512 1383.16 581.512C1361.49 581.512 1344.38 584.934 1332.59 592.158C1320.8 599.383 1314.72 610.409 1314.72 625.998C1314.72 636.644 1318.52 645.769 1326.12 652.994C1333.73 660.218 1347.8 667.442 1367.95 673.906L1421.95 691.016C1449.33 699.761 1469.1 711.928 1480.89 727.517C1492.68 743.106 1498.38 760.976 1498.38 780.747C1498.38 797.097 1494.96 811.925 1488.5 824.853C1481.65 837.78 1472.53 849.187 1460.74 858.312C1448.95 867.818 1434.88 874.662 1418.53 879.605C1401.42 884.928 1383.54 887.589 1364.15 887.589Z" fill="#252F3E"/>
<path fill-rule="evenodd" clip-rule="evenodd" d="M1436.02 1072.38C1310.91 1164.77 1129.15 1213.82 972.86 1213.82C753.829 1213.82 556.472 1132.83 407.409 998.233C395.621 987.587 406.268 973.138 420.338 981.503C581.569 1075.04 780.447 1131.69 986.169 1131.69C1124.97 1131.69 1277.45 1102.79 1417.77 1043.48C1438.68 1033.97 1456.56 1057.17 1436.02 1072.38Z" fill="#FF9900"/>
<path fill-rule="evenodd" clip-rule="evenodd" d="M1488.12 1013.06C1472.15 992.53 1382.4 1003.18 1341.72 1008.12C1329.55 1009.64 1327.65 998.993 1338.67 991.009C1410.16 940.82 1527.67 955.268 1541.35 971.998C1555.04 989.108 1537.55 1106.6 1470.63 1162.87C1460.36 1171.61 1450.47 1167.05 1455.03 1155.64C1470.25 1118 1504.09 1033.21 1488.12 1013.06Z" fill="#FF9900"/>
</svg>
