<svg width="1949" height="1653" viewBox="0 0 1949 1653" fill="none" xmlns="http://www.w3.org/2000/svg">
<rect width="1949" height="1653" fill="#263238"/>
<g clip-path="url(#clip0_1013_50408)">
<path d="M522.77 1003.8C588.524 992.166 642.833 982.54 643.457 982.407L644.591 982.167L582.513 908.218C548.37 867.546 520.434 834.111 520.434 833.918C520.434 833.553 584.535 656.773 584.896 656.144C585.016 655.934 628.639 731.358 690.64 838.978C748.687 939.733 796.543 1022.81 796.988 1023.58L797.797 1025L600.507 1024.97L403.217 1024.95L522.77 1003.8ZM1279.35 985.915C1249.32 983.986 1231.86 966.861 1227.23 934.805C1226 926.278 1225.99 926.056 1225.87 870.697L1225.74 817.119H1239.03H1252.33L1252.43 868.943C1252.52 915.651 1252.58 921.127 1253.03 924.413C1254.84 937.748 1258.44 946.715 1264.58 953.152C1269.48 958.303 1275.23 961.319 1283.19 962.92C1286.94 963.675 1297.61 963.676 1301.04 962.923C1309.1 961.146 1315.56 957.631 1321.27 951.923C1327.77 945.417 1332.57 936.186 1334.9 925.748L1335.68 922.23L1335.77 869.967L1335.86 817.704H1349.43H1363V899.863V982.021H1349.57H1336.14V968.986C1336.14 960.129 1336.04 955.983 1335.84 956.052C1335.67 956.107 1334.98 957.164 1334.3 958.4C1329.67 966.852 1321.96 974.582 1313.52 979.239C1303.39 984.821 1293.23 986.806 1279.35 985.915ZM1584.17 985.782C1573.57 984.984 1562.41 981.334 1553.29 975.682C1534.06 963.77 1522.68 944.134 1519.35 917.112C1518.2 907.762 1518.06 895.202 1519.02 887.256C1521.17 869.503 1528.14 852.074 1538.05 839.632C1540.6 836.443 1546.37 830.665 1549.55 828.119C1558.15 821.242 1568.21 816.433 1578.89 814.093C1585.12 812.73 1596.07 812.09 1602.69 812.703C1619.3 814.245 1634.52 822.077 1644.86 834.403C1655.38 846.926 1661.15 864.426 1661.89 885.974C1662.01 889.351 1662.03 895.272 1661.95 899.131L1661.81 906.148L1603.64 906.222L1545.46 906.296V908.896C1545.46 916.81 1547.39 925.823 1550.71 933.493C1553.57 940.106 1558.5 947.328 1562.54 950.823C1570.82 957.988 1580.95 962.277 1592.03 963.31C1596.14 963.692 1606.61 963.289 1611.3 962.569C1624.66 960.512 1637.37 955.263 1647.63 947.56C1648.83 946.653 1649.99 945.806 1650.19 945.678C1650.49 945.49 1650.56 947.858 1650.56 957.811L1650.55 970.179L1647.8 971.882C1636.19 979.071 1622.9 983.687 1608.82 985.415C1604.62 985.93 1589.2 986.16 1584.17 985.782ZM1634.8 881.473C1634.8 868.217 1629.22 853.49 1621.33 845.907C1615.69 840.496 1608.88 837.188 1600.79 835.933C1596.96 835.339 1588.89 835.567 1584.85 836.385C1576.31 838.112 1569.25 841.87 1563.09 847.965C1556.61 854.379 1551.75 862.17 1548.69 871.046C1547.59 874.238 1546.31 879.478 1545.91 882.393L1545.72 883.781H1590.26H1634.8V881.473ZM845.726 981.655C845.794 981.454 865.548 929.484 889.622 866.167L933.395 751.044L947.459 751.043L961.524 751.042L962.691 754.039C966.257 763.197 1050.32 981.771 1050.32 981.884C1050.32 981.959 1043.59 982.019 1035.36 982.018L1020.4 982.015L1008.28 949.71L996.164 917.405L947.38 917.405L898.596 917.404L898.172 918.5C897.939 919.103 892.762 933.64 886.669 950.803L875.589 982.009L860.596 982.015C848.728 982.019 845.628 981.944 845.726 981.655ZM987.26 892.752C987.26 892.701 979.106 870.564 969.141 843.559C950.497 793.038 949.454 789.998 947.981 781.888C947.29 778.084 946.941 777.978 946.531 781.449C946.238 783.93 944.967 789.48 943.988 792.559C943.502 794.087 935.106 817.164 925.331 843.841C915.556 870.518 907.558 892.457 907.558 892.595C907.558 892.733 925.491 892.845 947.409 892.845C969.327 892.845 987.26 892.803 987.26 892.752ZM1059.37 977.813V973.606L1107.97 906.692L1156.58 839.778L1112.57 839.632L1068.57 839.486L1068.49 828.303L1068.41 817.119H1132.06H1195.71V820.896V824.674L1147.1 891.952C1120.37 928.955 1098.49 959.293 1098.49 959.369C1098.49 959.445 1120.1 959.507 1146.52 959.507H1194.54V970.764V982.02H1126.96H1059.37V977.813ZM1416.03 981.826C1415.93 981.718 1415.84 944.616 1415.84 899.375V817.119H1429.12H1442.41V834.077C1442.41 843.404 1442.52 851.035 1442.66 851.035C1442.8 851.035 1443.44 849.508 1444.1 847.642C1447.08 839.092 1452.26 831.102 1458.93 824.752C1464.94 819.032 1471.82 815.611 1479.92 814.302C1482.2 813.934 1484.13 813.864 1488.68 813.983C1494.4 814.132 1497.39 814.551 1500.87 815.689L1501.96 816.048V829.856V843.665L1498.83 842.092C1493.28 839.312 1487.81 838.213 1481.24 838.555C1476.96 838.778 1474.15 839.328 1470.73 840.614C1463.69 843.26 1457.98 847.93 1453.99 854.305C1448.21 863.534 1444.09 875.397 1442.87 886.299C1442.66 888.256 1442.53 904.191 1442.48 935.605L1442.4 982.02H1429.31C1422.12 982.02 1416.14 981.933 1416.03 981.826ZM286 981.248C286 981.144 315.251 930.292 351.002 868.243L416.004 755.427L491.757 691.762C533.421 656.746 567.622 628.054 567.759 628.001C567.896 627.949 567.348 629.331 566.541 631.071C565.734 632.812 528.718 712.323 484.284 807.763L403.495 981.289L344.747 981.363C312.436 981.404 286 981.352 286 981.248Z" fill="#0089D6"/>
</g>
<defs>
<clipPath id="clip0_1013_50408">
<rect width="1376" height="397" fill="white" transform="translate(286 628)"/>
</clipPath>
</defs>
</svg>
