<svg width="1949" height="1653" viewBox="0 0 1949 1653" fill="none" xmlns="http://www.w3.org/2000/svg">
<g clip-path="url(#clip0_1013_50425)">
<rect width="1949" height="1653" fill="#464A50"/>
<path d="M929.386 745.406C921.34 745.154 914.802 751.441 914.55 759.236V831.655C880.101 803.995 829.559 809.527 801.899 843.976C790.583 858.309 784.297 875.911 784.297 894.267C783.543 938.523 818.746 974.984 863.002 975.738C907.258 976.492 943.719 941.289 944.474 897.033V760.242C944.474 756.218 942.965 752.446 940.199 749.68C937.181 746.914 933.41 745.406 929.386 745.406ZM910.527 913.629C905.498 925.699 895.943 935.254 883.873 940.534C871.3 945.815 857.219 945.815 844.646 940.534C832.576 935.505 823.272 925.699 818.243 913.88C812.963 901.559 812.963 887.477 818.243 874.905C823.272 862.835 832.828 853.28 844.646 848.251C857.219 842.97 871.3 842.97 883.873 848.251C895.943 853.531 905.498 863.086 910.527 875.156C915.808 887.226 915.808 901.307 910.527 913.629ZM1096.6 837.69C1065.42 806.509 1014.63 806.509 983.449 837.69C968.362 852.777 960.064 873.145 960.064 894.267C959.309 938.523 994.513 974.984 1038.77 975.738C1083.02 976.492 1119.49 941.289 1120.24 897.033V894.267C1120.24 883.706 1118.23 873.396 1114.21 863.589C1110.18 853.783 1104.15 844.982 1096.6 837.69ZM1086.29 913.377C1083.78 919.412 1080.01 924.693 1075.48 929.219C1070.96 933.745 1065.42 937.517 1059.64 940.031C1047.07 945.312 1032.99 945.312 1020.41 940.031C1008.34 935.002 998.788 925.196 993.759 913.377C988.478 901.056 988.478 886.975 993.759 874.402C998.788 862.332 1008.34 853.028 1020.41 847.748C1032.99 842.467 1047.07 842.467 1059.64 847.748C1065.67 850.262 1070.96 854.034 1075.48 858.56C1080.01 863.086 1083.78 868.618 1086.29 874.402C1091.57 887.226 1091.57 901.307 1086.29 913.377ZM1427.77 828.889C1427.77 826.877 1427.27 824.865 1426.51 823.105C1425.76 821.345 1424.5 819.836 1423.24 818.328C1421.99 817.07 1420.23 815.813 1418.47 815.059C1416.7 814.304 1414.69 813.801 1412.68 813.801C1409.92 813.801 1407.15 814.556 1404.64 816.064L1319.14 871.636V760.493C1319.14 756.47 1317.63 752.698 1314.87 749.932C1312.1 747.166 1308.33 745.406 1304.3 745.406C1296.01 745.406 1289.47 751.944 1289.22 760.242V959.142C1289.22 963.165 1290.73 966.937 1293.49 969.703C1296.26 972.721 1300.03 974.229 1304.05 974.229C1308.08 974.229 1311.85 972.721 1314.61 969.703C1317.38 966.937 1319.14 963.165 1318.89 959.142V907.594L1336.24 896.278L1402.37 970.457C1405.14 972.972 1408.66 974.481 1412.43 974.229C1414.44 974.229 1416.45 973.978 1418.21 972.972C1419.97 972.218 1421.48 971.212 1422.99 969.703C1424.25 968.194 1425.51 966.686 1426.26 964.925C1427.01 963.165 1427.52 961.154 1427.52 959.142C1427.52 955.37 1426.01 951.598 1423.49 948.832L1362.14 879.682L1421.99 840.707C1426.01 838.192 1428.02 833.666 1427.77 828.889ZM1179.58 858.56C1184.11 854.034 1189.64 850.262 1195.68 847.748C1201.96 845.233 1208.5 843.724 1215.29 843.724C1221.32 843.724 1227.11 844.73 1232.64 846.742C1238.17 849.005 1243.45 852.022 1247.98 856.046C1250.75 858.309 1254.27 859.315 1257.79 859.315C1261.81 859.566 1265.83 858.057 1268.6 855.04C1271.36 852.274 1272.87 848.251 1272.87 844.227C1272.87 839.953 1271.11 835.678 1267.59 832.912C1253.26 820.088 1234.65 813.047 1215.29 813.55C1171.03 813.55 1135.08 849.508 1135.08 893.764C1135.08 938.02 1170.78 973.726 1214.79 973.978C1234.15 973.978 1252.76 967.189 1267.34 954.616C1270.36 951.85 1272.12 947.827 1272.12 943.552C1272.37 935.505 1266.08 928.967 1258.29 928.716H1257.28C1253.76 928.716 1250.49 929.722 1247.73 931.733C1243.2 935.757 1238.17 938.774 1232.64 941.037C1227.11 943.049 1221.07 944.055 1215.29 944.055C1208.5 944.055 1201.96 942.797 1195.68 940.031C1189.64 937.517 1184.36 933.745 1179.58 929.219C1159.97 909.605 1159.97 877.922 1179.33 858.309C1179.58 858.812 1179.58 858.812 1179.58 858.56ZM1724.74 824.111C1721.72 821.345 1718.45 819.333 1714.68 818.076C1710.4 816.567 1705.88 815.562 1701.35 815.059C1696.83 814.556 1692.3 814.304 1687.77 814.304C1678.72 814.304 1669.42 815.813 1660.87 819.082C1652.32 822.099 1644.52 826.626 1637.48 832.158V829.14C1637.23 820.842 1630.19 814.556 1621.89 814.807C1618.13 814.933 1614.56 816.483 1611.9 819.144C1609.23 821.805 1607.68 825.379 1607.56 829.14V959.645C1607.81 967.943 1614.85 974.229 1623.15 973.978C1626.91 973.852 1630.48 972.302 1633.14 969.641C1635.81 966.979 1637.36 963.406 1637.48 959.645V894.518C1637.48 887.729 1638.74 881.191 1641.51 874.905C1644.02 868.87 1647.54 863.589 1652.32 859.063C1656.84 854.537 1662.38 850.765 1668.16 848.251C1674.45 845.736 1680.98 844.227 1687.77 844.227C1694.56 844.227 1701.1 845.485 1707.39 847.748C1709.4 848.754 1711.41 849.256 1713.67 849.256C1715.68 849.256 1717.7 849.005 1719.46 847.999C1721.22 847.245 1722.72 846.239 1724.23 844.73C1725.49 843.473 1726.75 841.713 1727.5 839.953C1728.26 838.192 1728.76 836.181 1728.76 834.169C1729.01 830.397 1727.5 826.877 1724.74 824.111ZM1585.93 863.589C1573.11 833.918 1543.94 814.556 1511.75 814.304C1467.5 814.304 1431.79 850.011 1431.54 894.267C1431.54 938.523 1467.5 974.481 1511.75 974.481C1530.87 974.481 1549.47 967.691 1564.06 955.119L1564.56 954.616C1565.82 953.61 1567.07 952.353 1567.83 950.844C1572.61 943.803 1570.85 934.499 1564.06 929.722C1558.27 925.95 1550.73 926.704 1545.7 931.482C1545.2 931.985 1543.69 933.242 1543.69 933.494L1543.44 933.745C1539.16 937.265 1534.39 940.283 1529.11 942.043C1523.57 944.055 1517.79 945.061 1511.75 944.809C1506.22 944.809 1500.94 944.055 1495.66 942.295C1490.63 940.534 1485.85 938.271 1481.58 935.002C1477.31 931.985 1473.53 928.213 1470.52 923.938C1467.25 919.664 1464.98 914.635 1463.48 909.605H1576.63C1580.65 909.605 1584.42 908.097 1587.19 905.331C1590.21 902.565 1591.72 898.793 1591.47 894.77C1591.72 883.957 1589.71 873.396 1585.93 863.589ZM1463.48 879.682C1464.98 874.402 1467.25 869.624 1470.52 865.35C1473.53 861.075 1477.31 857.303 1481.58 854.285C1485.85 851.268 1490.63 848.753 1495.66 846.993C1500.69 845.233 1506.22 844.479 1511.5 844.479C1516.78 844.479 1522.32 845.233 1527.34 846.993C1537.4 850.262 1546.2 856.8 1552.49 865.35C1555.76 869.624 1558.02 874.653 1559.78 879.682H1463.48ZM1673.69 952.604C1667.91 952.604 1663.38 957.382 1663.38 963.165C1663.38 968.949 1668.16 973.475 1673.94 973.475C1679.73 973.475 1684.25 968.697 1684.25 963.165C1684.25 957.13 1679.47 952.604 1673.69 952.604ZM1673.69 971.212C1669.17 971.463 1665.39 967.943 1665.14 963.417C1664.89 958.891 1668.41 955.119 1672.94 954.867C1677.46 954.616 1681.23 958.136 1681.49 962.662V963.165C1681.74 967.44 1678.22 971.212 1673.94 971.212H1673.69Z" fill="#0091E2"/>
<path d="M1676.21 963.166C1677.46 962.914 1678.22 961.908 1678.22 960.651C1678.22 959.645 1677.97 958.891 1677.21 958.388C1676.21 957.885 1674.95 957.634 1673.69 957.634C1672.43 957.634 1670.92 957.634 1669.67 957.885V968.195H1671.93V964.171H1672.94C1674.19 964.171 1674.95 964.674 1675.2 965.68C1675.45 966.435 1675.7 967.44 1675.95 968.195H1678.47C1677.97 967.44 1677.71 966.435 1677.71 965.68C1677.97 964.674 1677.21 963.669 1676.21 963.166ZM1673.19 962.411H1671.93V959.394H1673.19C1674.7 959.394 1675.45 960.148 1675.45 960.903C1675.7 961.908 1674.45 962.663 1673.19 962.411ZM756.888 779.101C755.379 777.844 741.801 767.534 712.632 767.534C705.088 767.534 697.293 768.288 689.75 769.546C684.218 731.073 652.283 712.466 651.026 711.46L643.231 706.934L638.202 714.226C631.915 724.032 627.138 735.096 624.372 746.412C619.091 768.288 622.36 788.908 633.424 806.509C620.097 814.053 598.472 815.813 593.946 816.065H236.88C227.576 816.065 220.033 823.608 220.033 832.912C219.53 864.093 224.81 895.273 235.623 924.693C247.944 956.879 266.3 980.767 289.937 995.352C316.591 1011.7 360.093 1021 409.127 1021C431.255 1021 453.383 1018.99 475.259 1014.97C505.685 1009.43 534.854 998.872 561.759 983.533C583.887 970.709 603.752 954.365 620.6 935.254C649.014 903.319 665.862 867.613 678.183 835.93H683.212C714.141 835.93 733.251 823.608 743.812 813.047C750.853 806.509 756.134 798.463 759.905 789.411L762.169 782.873L756.888 779.101Z" fill="#0091E2"/>
<path d="M270.072 805.755H317.848C320.111 805.755 322.123 803.995 322.123 801.48V758.733C322.123 756.47 320.362 754.458 317.848 754.458H270.072C267.809 754.458 265.797 756.218 265.797 758.733V801.48C266.048 803.995 267.809 805.755 270.072 805.755ZM335.953 805.755H383.729C385.992 805.755 388.004 803.995 388.004 801.48V758.733C388.004 756.47 386.244 754.458 383.729 754.458H335.953C333.69 754.458 331.678 756.218 331.678 758.733V801.48C331.929 803.995 333.69 805.755 335.953 805.755ZM403.091 805.755H450.867C453.13 805.755 455.142 803.995 455.142 801.48V758.733C455.142 756.47 453.382 754.458 450.867 754.458H403.091C400.828 754.458 398.816 756.218 398.816 758.733V801.48C398.816 803.995 400.576 805.755 403.091 805.755ZM469.224 805.755H517C519.263 805.755 521.275 803.995 521.275 801.48V758.733C521.275 756.47 519.514 754.458 517 754.458H469.224C466.96 754.458 464.949 756.218 464.949 758.733V801.48C464.949 803.995 466.96 805.755 469.224 805.755ZM335.953 744.652H383.729C385.992 744.652 388.004 742.64 388.004 740.377V697.63C388.004 695.367 386.244 693.355 383.729 693.355H335.953C333.69 693.355 331.678 695.115 331.678 697.63V740.377C331.929 742.64 333.69 744.652 335.953 744.652ZM403.091 744.652H450.867C453.13 744.652 455.142 742.64 455.142 740.377V697.63C455.142 695.367 453.382 693.355 450.867 693.355H403.091C400.828 693.355 398.816 695.115 398.816 697.63V740.377C398.816 742.64 400.576 744.652 403.091 744.652ZM469.224 744.652H517C519.263 744.652 521.275 742.64 521.275 740.377V697.63C521.275 695.367 519.263 693.355 517 693.355H469.224C466.96 693.355 464.949 695.115 464.949 697.63V740.377C464.949 742.64 466.96 744.652 469.224 744.652ZM469.224 683.297H517C519.263 683.297 521.275 681.537 521.275 679.022V636.275C521.275 634.012 519.263 632 517 632H469.224C466.96 632 464.949 633.76 464.949 636.275V679.022C464.949 681.285 466.96 683.297 469.224 683.297ZM535.859 805.755H583.635C585.898 805.755 587.91 803.995 587.91 801.48V758.733C587.91 756.47 586.15 754.458 583.635 754.458H535.859C533.596 754.458 531.584 756.218 531.584 758.733V801.48C531.836 803.995 533.596 805.755 535.859 805.755Z" fill="#0091E2"/>
<g clip-path="url(#clip1_1013_50425)">
<path d="M1679.88 1267.41C1687.93 1267.15 1694.47 1273.44 1694.72 1281.24V1353.65C1729.17 1325.99 1779.71 1331.53 1807.37 1365.98C1818.69 1380.31 1824.97 1397.91 1824.97 1416.27C1825.73 1460.52 1790.52 1496.98 1746.27 1497.74C1702.01 1498.49 1665.55 1463.29 1664.8 1419.03V1282.24C1664.8 1278.22 1666.3 1274.45 1669.07 1271.68C1672.09 1268.91 1675.86 1267.41 1679.88 1267.41ZM1698.74 1435.63C1703.77 1447.7 1713.33 1457.25 1725.4 1462.53C1737.97 1467.81 1752.05 1467.81 1764.62 1462.53C1776.69 1457.51 1786 1447.7 1791.03 1435.88C1796.31 1423.56 1796.31 1409.48 1791.03 1396.9C1786 1384.83 1776.44 1375.28 1764.62 1370.25C1752.05 1364.97 1737.97 1364.97 1725.4 1370.25C1713.33 1375.53 1703.77 1385.09 1698.74 1397.16C1693.46 1409.23 1693.46 1423.31 1698.74 1435.63ZM1512.67 1359.69C1543.85 1328.51 1594.64 1328.51 1625.82 1359.69C1640.91 1374.78 1649.21 1395.14 1649.21 1416.27C1649.96 1460.52 1614.76 1496.98 1570.5 1497.74C1526.24 1498.49 1489.78 1463.29 1489.03 1419.03V1416.27C1489.03 1405.71 1491.04 1395.4 1495.06 1385.59C1499.09 1375.78 1505.12 1366.98 1512.67 1359.69ZM1522.98 1435.38C1525.49 1441.41 1529.26 1446.69 1533.79 1451.22C1538.31 1455.75 1543.85 1459.52 1549.63 1462.03C1562.2 1467.31 1576.28 1467.31 1588.86 1462.03C1600.93 1457 1610.48 1447.2 1615.51 1435.38C1620.79 1423.06 1620.79 1408.97 1615.51 1396.4C1610.48 1384.33 1600.93 1375.03 1588.86 1369.75C1576.28 1364.47 1562.2 1364.47 1549.63 1369.75C1543.6 1372.26 1538.31 1376.03 1533.79 1380.56C1529.26 1385.09 1525.49 1390.62 1522.98 1396.4C1517.7 1409.23 1517.7 1423.31 1522.98 1435.38ZM1181.5 1350.89C1181.5 1348.88 1182 1346.87 1182.76 1345.11C1183.51 1343.34 1184.77 1341.84 1186.03 1340.33C1187.28 1339.07 1189.04 1337.81 1190.8 1337.06C1192.56 1336.3 1194.58 1335.8 1196.59 1335.8C1199.35 1335.8 1202.12 1336.56 1204.63 1338.06L1290.13 1393.64V1282.49C1290.13 1278.47 1291.64 1274.7 1294.4 1271.93C1297.17 1269.17 1300.94 1267.41 1304.96 1267.41C1313.26 1267.41 1319.8 1273.94 1320.05 1282.24V1481.14C1320.05 1485.17 1318.54 1488.94 1315.78 1491.7C1313.01 1494.72 1309.24 1496.23 1305.22 1496.23C1301.19 1496.23 1297.42 1494.72 1294.66 1491.7C1291.89 1488.94 1290.13 1485.17 1290.38 1481.14V1429.59L1273.03 1418.28L1206.9 1492.46C1204.13 1494.97 1200.61 1496.48 1196.84 1496.23C1194.83 1496.23 1192.82 1495.98 1191.06 1494.97C1189.3 1494.22 1187.79 1493.21 1186.28 1491.7C1185.02 1490.19 1183.76 1488.69 1183.01 1486.93C1182.25 1485.17 1181.75 1483.15 1181.75 1481.14C1181.75 1477.37 1183.26 1473.6 1185.78 1470.83L1247.13 1401.68L1187.28 1362.71C1183.26 1360.19 1181.25 1355.67 1181.5 1350.89ZM1429.69 1380.56C1425.16 1376.03 1419.63 1372.26 1413.59 1369.75C1407.31 1367.23 1400.77 1365.72 1393.98 1365.72C1387.94 1365.72 1382.16 1366.73 1376.63 1368.74C1371.1 1371 1365.82 1374.02 1361.29 1378.05C1358.52 1380.31 1355 1381.31 1351.48 1381.31C1347.46 1381.57 1343.44 1380.06 1340.67 1377.04C1337.91 1374.27 1336.4 1370.25 1336.4 1366.23C1336.4 1361.95 1338.16 1357.68 1341.68 1354.91C1356.01 1342.09 1374.62 1335.05 1393.98 1335.55C1438.24 1335.55 1474.19 1371.51 1474.19 1415.76C1474.19 1460.02 1438.49 1495.73 1394.48 1495.98C1375.12 1495.98 1356.51 1489.19 1341.93 1476.62C1338.91 1473.85 1337.15 1469.83 1337.15 1465.55C1336.9 1457.51 1343.19 1450.97 1350.98 1450.72H1351.99C1355.51 1450.72 1358.78 1451.72 1361.54 1453.73C1366.07 1457.76 1371.1 1460.77 1376.63 1463.04C1382.16 1465.05 1388.2 1466.05 1393.98 1466.05C1400.77 1466.05 1407.31 1464.8 1413.59 1462.03C1419.63 1459.52 1424.91 1455.75 1429.69 1451.22C1449.3 1431.61 1449.3 1399.92 1429.94 1380.31C1429.69 1380.81 1429.69 1380.81 1429.69 1380.56ZM884.533 1346.11C887.55 1343.34 890.819 1341.33 894.591 1340.08C898.866 1338.57 903.392 1337.56 907.918 1337.06C912.444 1336.56 916.971 1336.3 921.497 1336.3C930.549 1336.3 939.853 1337.81 948.402 1341.08C956.952 1344.1 964.747 1348.63 971.788 1354.16V1351.14C972.039 1342.84 979.08 1336.56 987.378 1336.81C991.139 1336.93 994.712 1338.48 997.374 1341.14C1000.03 1343.81 1001.59 1347.38 1001.71 1351.14V1481.64C1001.46 1489.94 994.418 1496.23 986.12 1495.98C982.359 1495.85 978.786 1494.3 976.125 1491.64C973.464 1488.98 971.913 1485.41 971.788 1481.64V1416.52C971.788 1409.73 970.53 1403.19 967.764 1396.9C965.25 1390.87 961.729 1385.59 956.952 1381.06C952.426 1376.54 946.894 1372.77 941.11 1370.25C934.824 1367.74 928.286 1366.23 921.497 1366.23C914.708 1366.23 908.17 1367.48 901.883 1369.75C899.872 1370.75 897.86 1371.26 895.597 1371.26C893.585 1371.26 891.574 1371 889.813 1370C888.053 1369.24 886.545 1368.24 885.036 1366.73C883.779 1365.47 882.521 1363.71 881.767 1361.95C881.012 1360.19 880.51 1358.18 880.51 1356.17C880.258 1352.4 881.767 1348.88 884.533 1346.11ZM1023.34 1385.59C1036.16 1355.92 1065.33 1336.56 1097.51 1336.3C1141.77 1336.3 1177.48 1372.01 1177.73 1416.27C1177.73 1460.52 1141.77 1496.48 1097.51 1496.48C1078.4 1496.48 1059.8 1489.69 1045.21 1477.12L1044.71 1476.62C1043.45 1475.61 1042.19 1474.35 1041.44 1472.84C1036.66 1465.8 1038.42 1456.5 1045.21 1451.72C1051 1447.95 1058.54 1448.7 1063.57 1453.48C1064.07 1453.98 1065.58 1455.24 1065.58 1455.49L1065.83 1455.75C1070.11 1459.27 1074.88 1462.28 1080.16 1464.04C1085.7 1466.05 1091.48 1467.06 1097.51 1466.81C1103.05 1466.81 1108.33 1466.05 1113.61 1464.29C1118.64 1462.53 1123.41 1460.27 1127.69 1457C1131.96 1453.98 1135.74 1450.21 1138.75 1445.94C1142.02 1441.66 1144.29 1436.63 1145.79 1431.61H1032.64C1028.62 1431.61 1024.84 1430.1 1022.08 1427.33C1019.06 1424.56 1017.55 1420.79 1017.8 1416.77C1017.55 1405.96 1019.56 1395.4 1023.34 1385.59ZM1145.79 1401.68C1144.29 1396.4 1142.02 1391.62 1138.75 1387.35C1135.74 1383.07 1131.96 1379.3 1127.69 1376.29C1123.41 1373.27 1118.64 1370.75 1113.61 1368.99C1108.58 1367.23 1103.05 1366.48 1097.77 1366.48C1092.49 1366.48 1086.95 1367.23 1081.92 1368.99C1071.87 1372.26 1063.07 1378.8 1056.78 1387.35C1053.51 1391.62 1051.25 1396.65 1049.49 1401.68H1145.79ZM935.578 1474.6C941.362 1474.6 945.888 1479.38 945.888 1485.17C945.888 1490.95 941.11 1495.47 935.327 1495.47C929.543 1495.47 925.017 1490.7 925.017 1485.17C925.017 1479.13 929.795 1474.6 935.578 1474.6ZM935.578 1493.21C940.104 1493.46 943.876 1489.94 944.128 1485.42C944.379 1480.89 940.859 1477.12 936.332 1476.87C931.806 1476.62 928.035 1480.14 927.783 1484.66V1485.17C927.532 1489.44 931.052 1493.21 935.327 1493.21H935.578Z" fill="#0091E2"/>
<path d="M933.064 1485.17C931.807 1484.91 931.053 1483.91 931.053 1482.65C931.053 1481.65 931.304 1480.89 932.058 1480.39C933.064 1479.89 934.321 1479.63 935.579 1479.63C936.836 1479.63 938.345 1479.63 939.602 1479.89V1490.19H937.339V1486.17H936.333C935.076 1486.17 934.322 1486.67 934.07 1487.68C933.819 1488.43 933.567 1489.44 933.316 1490.19H930.801C931.304 1489.44 931.556 1488.43 931.556 1487.68C931.304 1486.67 932.058 1485.67 933.064 1485.17ZM936.082 1484.41H937.339V1481.39H936.082C934.573 1481.39 933.818 1482.15 933.818 1482.9C933.567 1483.91 934.824 1484.66 936.082 1484.41ZM1852.38 1301.1C1853.89 1299.84 1867.47 1289.53 1896.64 1289.53C1904.18 1289.53 1911.98 1290.29 1919.52 1291.55C1925.05 1253.07 1956.99 1234.47 1958.24 1233.46L1966.04 1228.93L1971.07 1236.23C1977.35 1246.03 1982.13 1257.1 1984.9 1268.41C1990.18 1290.29 1986.91 1310.91 1975.85 1328.51C1989.17 1336.05 2010.8 1337.81 2015.32 1338.06H2372.39C2381.69 1338.06 2389.24 1345.61 2389.24 1354.91C2389.74 1386.09 2384.46 1417.27 2373.65 1446.69C2361.33 1478.88 2342.97 1502.77 2319.33 1517.35C2292.68 1533.7 2249.18 1543 2200.14 1543C2178.01 1543 2155.89 1540.99 2134.01 1536.97C2103.58 1531.43 2074.42 1520.87 2047.51 1505.53C2025.38 1492.71 2005.52 1476.36 1988.67 1457.25C1960.26 1425.32 1943.41 1389.61 1931.09 1357.93H1926.06C1895.13 1357.93 1876.02 1345.61 1865.46 1335.05C1858.42 1328.51 1853.14 1320.46 1849.36 1311.41L1847.1 1304.87L1852.38 1301.1Z" fill="#0091E2"/>
</g>
</g>
<defs>
<clipPath id="clip0_1013_50425">
<rect width="1949" height="1653" fill="white"/>
</clipPath>
<clipPath id="clip1_1013_50425">
<rect width="2500" height="-389" fill="white" transform="matrix(1 0 0 -1 385 1154)"/>
</clipPath>
</defs>
</svg>
