<svg width="1949" height="1653" viewBox="0 0 1949 1653" fill="none" xmlns="http://www.w3.org/2000/svg">
<rect width="1949" height="1653" fill="white"/>
<g clip-path="url(#clip0_1013_50447)">
<path d="M624.293 640.311V927.731L661.223 927.872V791.066H750.446V754.856H661.223V676.52H777.369V640.311H624.293ZM844.04 698.64C857.43 698.64 868.143 687.792 868.143 674.548C868.143 661.304 857.289 650.455 844.04 650.455C830.649 650.455 819.937 661.304 819.937 674.548C819.937 687.792 830.79 698.64 844.04 698.64ZM825.293 734.85V927.731H862.223V734.85H825.293Z" fill="black"/>
<path fill-rule="evenodd" clip-rule="evenodd" d="M999.37 729.214C950.177 729.214 915.926 770.777 915.926 820.089C915.926 869.402 950.177 910.965 999.37 910.965C1021.92 910.965 1040.39 902.23 1053.92 888.14V913.642C1053.92 945.624 1028.83 972.253 995.987 972.253C984.147 972.253 972.448 967.744 963.145 961.263L944.539 993.387C959.339 1002.97 976.959 1008.46 995.846 1008.46C1048.28 1008.46 1090.71 966.054 1090.71 913.642V734.85H1053.92V752.038C1040.39 737.949 1021.92 729.214 999.37 729.214ZM952.997 820.089C952.997 789.516 976.395 765.423 1003.46 765.423C1030.52 765.423 1053.92 789.516 1053.92 820.089C1053.92 850.663 1030.52 874.756 1003.46 874.756C976.395 874.756 952.997 850.663 952.997 820.089Z" fill="black"/>
<path d="M1224.19 765.423C1202.35 765.423 1184.59 784.021 1184.59 805.859V927.731H1147.66V734.85H1184.59V752.461C1195.44 738.513 1211.37 729.214 1232.23 729.214C1258.16 729.214 1278.04 742.035 1289.6 761.76C1302.42 742.74 1323.28 729.214 1348.52 729.214C1390.66 729.214 1416.88 763.169 1417.02 805.155V927.731H1380.09V805.718C1380.09 783.88 1362.33 765.282 1340.48 765.282C1318.63 765.282 1300.87 783.88 1300.87 805.718V927.731H1263.94V805.718C1263.8 783.88 1246.04 765.423 1224.19 765.423Z" fill="black"/>
<path fill-rule="evenodd" clip-rule="evenodd" d="M1614.07 756.688C1597.58 739.64 1575.03 729.214 1548.95 729.214C1493.98 729.214 1454.79 775.849 1454.79 831.361C1454.79 886.872 1493.84 933.508 1548.95 933.508C1575.03 933.508 1597.58 922.941 1614.07 906.034V927.731H1651V734.85H1614.07V756.688ZM1491.86 831.361C1491.86 794.588 1520.05 765.423 1553.04 765.423C1585.88 765.423 1614.21 794.447 1614.21 831.361C1614.21 868.134 1586.02 897.298 1553.04 897.298C1520.05 897.157 1491.86 868.134 1491.86 831.361Z" fill="black"/>
<path d="M421.18 826.57C421.18 792.334 448.948 764.437 483.34 764.437C517.592 764.437 545.501 792.193 545.501 826.57C545.501 860.807 517.733 888.704 483.34 888.704C449.088 888.704 421.18 860.807 421.18 826.57Z" fill="#1ABCFE"/>
<path d="M297 950.696C297 916.46 324.768 888.563 359.161 888.563H421.321V950.696C421.321 984.933 393.553 1012.83 359.161 1012.83C324.768 1012.83 297 985.074 297 950.696Z" fill="#0ACF83"/>
<path d="M421.18 640.311V764.437H483.34C517.592 764.437 545.501 736.681 545.501 702.303C545.501 668.067 517.733 640.17 483.34 640.17H421.18V640.311Z" fill="#FF7262"/>
<path d="M297 702.444C297 736.681 324.768 764.578 359.161 764.578H421.321V640.311H359.161C324.768 640.311 297 668.067 297 702.444Z" fill="#F24E1E"/>
<path d="M297 826.57C297 860.807 324.768 888.704 359.161 888.704H421.321V764.437H359.161C324.768 764.437 297 792.334 297 826.57Z" fill="#A259FF"/>
</g>
<defs>
<clipPath id="clip0_1013_50447">
<rect width="1354" height="373" fill="white" transform="translate(297 640)"/>
</clipPath>
</defs>
</svg>
