<svg width="1949" height="1653" viewBox="0 0 1949 1653" fill="none" xmlns="http://www.w3.org/2000/svg">
<rect width="1949" height="1653" fill="#EAEAFF"/>
<path d="M514.329 647.534L624.793 647.412L439.464 832.697L391.164 880.74L336.209 825.703L514.329 647.534ZM513.301 812.972C514.735 811.077 517.372 812.011 519.374 811.767L624.699 811.794L528.707 907.718L473.468 852.802L513.301 812.972Z" fill="#44D1FD"/>
<path opacity="0.54" d="M780.054 724.813L900.474 724.854L900.46 748.571C868.959 748.571 837.444 748.476 805.929 748.612C803.521 749.41 804.658 752.427 804.387 754.281L804.482 818.072C805.28 820.466 808.31 819.316 810.176 819.614L891.006 819.573V843.263C865.875 843.25 840.758 843.25 815.627 843.263C811.894 843.25 808.12 843.02 804.428 843.656L804.144 933.708C796.042 933.383 787.953 933.681 779.851 933.505L779.838 728.642L780.054 724.813ZM929.676 724.854H954.401L954.414 866.588L954.144 933.329C946.096 933.18 938.048 933.139 930.014 933.356C929.392 930.055 929.649 926.699 929.649 923.371L929.676 724.854ZM1171.68 742.429L1196.48 742.442L1196.52 784.383C1208.66 784.681 1220.86 783.842 1232.96 784.803C1232.62 792.325 1232.91 799.848 1232.77 807.37C1220.71 807.397 1208.66 807.492 1196.61 807.316L1196.51 890.846C1196.77 898.585 1198.42 907.934 1205.94 911.925C1214.53 916.809 1225.08 914.509 1233.21 909.801V934.1C1224.25 938.159 1214.04 938.646 1204.42 937.333C1190.87 935.263 1177.89 926.023 1173.79 912.588C1171.07 905.228 1171.69 897.286 1171.64 889.602L1171.58 808.249L1170.97 807.559C1162.41 807.099 1153.82 807.627 1145.25 807.329C1145.3 799.672 1144.95 792.014 1145.44 784.37C1154.15 784.221 1162.9 784.762 1171.6 784.099L1171.68 742.429ZM1276.47 742.348C1284.73 742.632 1292.98 742.253 1301.21 742.537L1301.78 743.159C1302.09 756.932 1301.36 770.746 1302.11 784.492C1313.86 784.275 1325.61 784.451 1337.35 784.383L1337.44 807.194C1325.61 807.641 1313.75 807.37 1301.93 807.302L1301.79 892.281C1301.78 899.681 1303.92 908.435 1311.07 912.074C1319.85 916.863 1330.5 914.401 1338.65 909.503L1338.63 933.938C1329.93 937.861 1320.12 938.619 1310.74 937.536C1298.55 935.913 1286.62 929.026 1280.9 917.865C1278.14 912.02 1276.6 905.553 1276.34 899.099V807.397C1267.78 807.383 1259.23 807.424 1250.68 807.397L1250.74 784.302C1259.16 784.532 1267.59 784.235 1276.01 784.519C1276.91 770.502 1275.95 756.391 1276.47 742.348ZM1396.88 785.168C1414 778.065 1433.77 777.93 1451.25 783.883C1471.29 790.796 1486.79 808.276 1492.47 828.557C1496.19 839.8 1496.04 851.746 1495.51 863.436L1377.77 863.558C1378.74 876.099 1382.49 888.885 1391.2 898.301C1403.58 912.737 1424.88 918.095 1442.87 912.426C1455.49 908.705 1465.33 898.991 1471.81 887.829C1478.98 891.036 1485.95 894.689 1493.09 897.976C1483.32 916.593 1465.56 931.381 1444.69 935.385C1427.56 938.592 1408.81 938.673 1393.09 930.203C1372.7 920.07 1358.66 899.438 1354.65 877.249C1351.75 860.202 1352.65 842.168 1359.06 825.986C1365.79 808.222 1379.38 792.839 1396.88 785.168ZM1406.2 806.558C1391.79 813.215 1382.52 828.002 1379.62 843.263L1469.92 842.979C1468.49 833.008 1464.94 822.875 1457.64 815.663C1444.84 801.945 1422.97 799.266 1406.2 806.558ZM1549.11 808.52C1558.54 785.615 1587.5 773.587 1610.4 783.179V809.913C1600.78 806.125 1590 803.785 1579.84 806.775C1565.97 810.901 1555.7 823.281 1551.76 836.905C1549.06 846.105 1550.07 855.711 1550.18 865.141C1549.13 877.344 1550.71 889.561 1549.91 901.765C1550.56 912.304 1549.34 922.843 1550.24 933.396C1541.82 933.802 1533.41 933.369 1525.01 933.653C1524.52 901.846 1524.94 870.025 1524.81 838.203L1525 784.641C1532.88 784.857 1540.78 784.613 1548.68 784.803C1549.4 792.704 1547.8 800.646 1549.11 808.52ZM989.865 784.343C998.251 784.695 1006.7 783.842 1015.05 784.789L1014.93 873.461C1014.85 884.298 1016.39 896.136 1023.88 904.552C1033.55 915.267 1049.93 917.229 1063.16 912.994C1080.84 906.662 1093.17 887.938 1092.46 869.213L1092.73 784.343L1117.98 784.397L1117.83 933.288C1109.82 933.153 1101.83 933.288 1093.84 933.193L1093.74 912.006C1088.56 918.514 1083.12 925.103 1075.7 929.202C1060.5 938.795 1041.21 940.066 1024.18 935.155C1013.2 931.841 1003.63 924.142 998.129 914.076C991.596 903.009 989.946 889.926 989.568 877.317L989.865 784.343Z" fill="black"/>
<path d="M418.404 907.812L473.467 852.802L528.706 907.718L528.936 907.961L473.481 962.918L418.404 907.812Z" fill="#1FBCFD"/>
<path d="M473.48 962.917L528.936 907.961L624.738 1003.88C588.652 1003.97 552.579 1003.86 516.506 1003.94C514.45 1004.4 513.178 1002.52 511.866 1001.35L473.48 962.917Z" fill="#08589C"/>
</svg>
