<svg width="1949" height="1653" viewBox="0 0 1949 1653" fill="none" xmlns="http://www.w3.org/2000/svg">
<rect width="1949" height="1653" fill="#0F62A5"/>
<g clip-path="url(#clip0_1008_40740)">
<path fill-rule="evenodd" clip-rule="evenodd" d="M982.179 626.001C981.149 626.013 980.107 626.259 979.187 626.798C977.351 627.876 976.195 629.854 976.195 631.982V784.519C976.195 786.017 975.497 787.357 974.201 788.108C972.901 788.862 971.315 788.862 970.012 788.108L945.079 773.752C941.364 771.611 936.827 771.612 933.111 773.752L833.579 831.178C829.858 833.323 827.595 837.451 827.595 841.745V956.596C827.595 960.886 829.861 964.815 833.579 966.965L933.111 1024.39C936.832 1026.54 941.358 1026.54 945.079 1024.39L1044.61 966.965C1048.33 964.815 1050.6 960.886 1050.6 956.596V670.266C1050.6 665.911 1048.22 661.823 1044.41 659.698L985.171 626.599C984.241 626.08 983.21 625.989 982.179 626.001ZM341.902 769.365C340.004 769.441 338.22 769.773 336.516 770.761L236.984 828.186C233.275 830.329 231 834.233 231 838.555L231.199 992.686C231.199 994.83 232.305 996.821 234.191 997.871C236.039 998.977 238.333 998.977 240.175 997.871L299.216 963.973C302.956 961.752 305.399 957.889 305.399 953.605V881.624C305.399 877.33 307.659 873.39 311.383 871.255L336.516 856.7C338.392 855.616 340.405 855.105 342.5 855.105C344.551 855.105 346.66 855.615 348.484 856.7L373.616 871.255C377.34 873.39 379.6 877.33 379.6 881.624V953.605C379.6 957.889 382.068 961.777 385.783 963.973L444.824 997.871C446.679 998.977 448.969 998.977 450.808 997.871C452.641 996.821 453.8 994.83 453.8 992.686L453.999 838.555C453.999 834.233 451.749 830.329 448.015 828.186L348.483 770.761C346.8 769.773 345.009 769.443 343.098 769.365H341.902ZM1236.3 770.761C1234.22 770.758 1232.18 771.284 1230.31 772.356L1130.78 829.781C1127.06 831.928 1124.8 835.856 1124.8 840.15V955.001C1124.8 959.319 1127.23 963.235 1130.98 965.369L1229.71 1021.6C1233.36 1023.68 1237.81 1023.84 1241.48 1021.8L1301.32 988.497C1303.22 987.444 1304.5 985.478 1304.51 983.313C1304.52 981.147 1303.4 979.206 1301.52 978.129L1201.39 920.703C1199.51 919.634 1198.2 917.469 1198.2 915.319V879.428C1198.2 877.282 1199.53 875.316 1201.39 874.245L1232.51 856.298C1234.36 855.228 1236.63 855.228 1238.49 856.298L1269.61 874.245C1271.46 875.316 1272.6 877.282 1272.6 879.428V907.743C1272.6 909.892 1273.73 911.855 1275.59 912.926C1277.46 914.001 1279.71 914.005 1281.57 912.926L1341.21 878.233C1344.92 876.083 1347.2 872.144 1347.2 867.864V840.148C1347.2 835.867 1344.92 831.929 1341.21 829.779L1242.28 772.354C1240.42 771.274 1238.38 770.763 1236.3 770.761ZM938.696 856.5C939.215 856.5 939.826 856.628 940.292 856.896L974.4 876.636C975.326 877.172 975.996 878.159 975.996 879.228V918.708C975.996 919.78 975.332 920.768 974.4 921.3L940.292 941.04C939.363 941.57 938.229 941.57 937.3 941.04L903.192 921.3C902.263 920.764 901.596 919.78 901.596 918.708V879.228C901.596 878.159 902.266 877.175 903.192 876.636L937.3 856.899C937.766 856.631 938.177 856.503 938.696 856.503V856.5Z" fill="#404137"/>
<path fill-rule="evenodd" clip-rule="evenodd" d="M1534.49 767.969C1531.04 767.969 1527.69 768.682 1524.72 770.362L1430.77 824.597C1424.69 828.096 1421 834.71 1421 841.745V950.016C1421 957.047 1424.69 963.653 1430.77 967.163L1455.31 981.321C1467.23 987.193 1471.62 987.103 1477.05 987.103C1494.7 987.103 1504.77 976.398 1504.77 957.792V850.917C1504.77 849.406 1503.47 848.324 1501.98 848.324H1490.21C1488.71 848.324 1487.42 849.406 1487.42 850.917V957.792C1487.42 966.039 1478.83 974.333 1464.88 967.363L1439.35 952.409C1438.45 951.917 1437.75 951.05 1437.75 950.016V841.745C1437.75 840.717 1438.44 839.673 1439.35 839.153L1533.1 785.117C1533.98 784.613 1535.02 784.613 1535.89 785.117L1629.64 839.153C1630.53 839.689 1631.23 840.685 1631.23 841.745V950.016C1631.23 951.05 1630.72 952.11 1629.84 952.608L1535.89 1006.64C1535.09 1007.12 1533.98 1007.12 1533.1 1006.64L1508.96 992.288C1508.25 991.867 1507.26 991.898 1506.57 992.288C1499.91 996.063 1498.65 996.502 1492.41 998.668C1490.87 999.204 1488.53 1000.04 1493.21 1002.66L1524.72 1021.2C1527.72 1022.94 1531.06 1023.79 1534.49 1023.79C1537.97 1023.79 1541.27 1022.94 1544.27 1021.2L1638.22 967.163C1644.3 963.628 1647.99 957.047 1647.99 950.016V841.745C1647.99 834.71 1644.3 828.111 1638.22 824.597L1544.27 770.362C1541.32 768.682 1537.95 767.969 1534.49 767.969ZM640.898 770.162C638.824 770.162 636.772 770.685 634.915 771.757L535.382 828.983C531.661 831.127 529.398 835.261 529.398 839.551V954.402C529.398 958.697 531.664 962.622 535.382 964.771L634.915 1022.2C638.636 1024.34 643.161 1024.34 646.882 1022.2L746.415 964.771C750.129 962.622 752.399 958.697 752.399 954.402V839.551C752.399 835.255 750.136 831.127 746.415 828.983L646.882 771.757C645.025 770.685 642.972 770.162 640.898 770.162ZM1673.92 770.762V773.553H1681.7V794.09H1684.89V773.553H1692.87V770.762H1673.92ZM1695.66 770.762V794.09H1698.65V780.332C1698.65 779.771 1698.68 778.903 1698.65 777.741C1698.61 776.557 1698.65 775.525 1698.65 774.949V774.349L1705.24 794.089H1708.43L1715.21 774.349C1715.21 775.604 1715.04 776.817 1715.01 777.938C1715 779.029 1715.01 779.848 1715.01 780.331V794.089H1718V770.76H1713.61L1706.83 790.5L1700.25 770.76L1695.66 770.762ZM1559.63 845.335C1532.87 845.335 1516.94 856.716 1516.94 875.643C1516.94 896.175 1532.76 901.816 1558.43 904.356C1589.15 907.362 1591.54 911.87 1591.54 917.915C1591.54 928.399 1583.18 932.869 1563.42 932.869C1538.59 932.869 1533.13 926.673 1531.3 914.325C1531.09 913.001 1530.07 911.933 1528.71 911.933H1516.54C1515.04 911.933 1513.75 913.222 1513.75 914.724C1513.75 930.529 1522.35 949.22 1563.42 949.22C1593.14 949.22 1610.29 937.555 1610.29 917.117C1610.29 896.856 1596.44 891.418 1567.61 887.607C1538.47 883.753 1535.69 881.867 1535.69 875.045C1535.69 869.414 1538.05 861.884 1559.63 861.884C1578.9 861.884 1586.03 866.04 1588.95 879.033C1589.2 880.254 1590.28 881.226 1591.54 881.226H1603.71C1604.46 881.226 1605.18 880.767 1605.7 880.229C1606.21 879.654 1606.57 879.007 1606.5 878.235C1604.62 855.859 1589.69 845.335 1559.63 845.335ZM1236.1 872.652C1235.7 872.652 1235.26 872.652 1234.9 872.85L1215.75 884.016C1215.03 884.425 1214.56 885.184 1214.56 886.01V907.943C1214.56 908.769 1215.03 909.526 1215.75 909.937L1234.9 920.904C1235.62 921.319 1236.38 921.319 1237.09 920.904L1256.24 909.937C1256.95 909.529 1257.44 908.769 1257.44 907.943V886.01C1257.44 885.184 1256.95 884.427 1256.24 884.016L1237.09 872.85C1236.74 872.64 1236.5 872.652 1236.1 872.652Z" fill="#83CD29"/>
</g>
<defs>
<clipPath id="clip0_1008_40740">
<rect width="1487" height="400" fill="white" transform="translate(231 626)"/>
</clipPath>
</defs>
</svg>
