<svg width="1949" height="1653" viewBox="0 0 1949 1653" fill="none" xmlns="http://www.w3.org/2000/svg">
<rect width="1949" height="1653" fill="#372929"/>
<g clip-path="url(#clip0_1008_40765)">
<path d="M780.903 792.258C780.903 743.833 767.089 718.974 739.46 717.614C728.483 717.086 717.518 718.886 707.287 722.897C698.956 725.877 693.346 728.826 690.391 731.809V847.386C708.065 858.473 723.763 863.623 737.447 862.815C766.407 860.903 780.903 837.407 780.903 792.258ZM814.989 794.266C814.989 818.866 809.217 839.283 797.605 855.523C784.666 873.898 766.733 883.362 743.805 883.881C726.521 884.432 708.714 879.019 690.391 867.677V972.72L660.75 962.156V728.989C665.618 723.027 671.876 717.906 679.465 713.56C697.106 703.285 718.542 698.005 743.772 697.746L744.195 698.168C767.252 697.875 785.022 707.339 797.509 726.525C809.154 744.126 814.989 766.684 814.989 794.266ZM996.142 863.204C996.142 896.197 992.835 919.048 986.217 931.753C979.57 944.456 966.92 954.604 948.241 962.156C933.099 968.118 916.72 971.36 899.143 971.909L894.248 953.241C912.115 950.814 924.698 948.379 931.995 945.949C946.361 941.087 956.22 933.632 961.636 923.65C965.981 915.517 968.124 899.991 968.124 877.011V869.296C947.852 878.5 926.611 883.072 904.396 883.072C889.803 883.072 876.931 878.5 865.838 869.296C853.385 859.281 847.159 846.575 847.159 831.183V707.891L876.801 697.746V821.846C876.801 835.103 881.08 845.311 889.644 852.474C898.204 859.64 909.294 863.075 922.882 862.815C936.47 862.523 951.029 857.272 966.5 846.997V702.218H996.142V863.204ZM1111.85 882.261C1108.6 882.536 1105.35 882.677 1102.09 882.683C1085.32 882.683 1072.25 878.693 1062.91 870.689C1053.61 862.686 1048.94 851.633 1048.94 837.537V720.856H1028.63V702.218H1048.94V652.726L1078.55 642.191V702.218H1111.85V720.856H1078.55V836.722C1078.55 847.842 1081.53 855.716 1087.5 860.318C1092.62 864.109 1100.76 866.284 1111.85 866.836L1111.85 882.261ZM1291.32 879.83H1261.68V765.483C1261.68 753.848 1258.95 743.836 1253.54 735.47C1247.28 726.007 1238.59 721.275 1227.43 721.275C1213.84 721.275 1196.85 728.437 1176.45 742.766V879.83H1146.81V606.509L1176.45 597.175V721.664C1195.39 707.891 1216.08 700.988 1238.55 700.988C1254.25 700.988 1266.96 706.268 1276.69 716.802C1286.45 727.337 1291.32 740.464 1291.32 756.149V879.83ZM1448.86 787.589C1448.86 768.985 1445.33 753.622 1438.29 741.469C1429.92 726.655 1416.92 718.844 1399.34 718.036C1366.85 719.915 1350.63 743.184 1350.63 787.782C1350.63 808.232 1354.01 825.314 1360.81 839.024C1369.51 856.494 1382.54 865.116 1399.93 864.827C1432.55 864.564 1448.86 838.831 1448.86 787.589ZM1481.32 787.782C1481.32 814.264 1474.55 836.304 1461.02 853.9C1446.14 873.609 1425.58 883.495 1399.34 883.495C1373.33 883.495 1353.06 873.609 1338.44 853.9C1325.18 836.304 1318.56 814.264 1318.56 787.782C1318.56 762.893 1325.73 741.954 1340.06 724.903C1355.21 706.82 1375.12 697.746 1399.73 697.746C1424.34 697.746 1444.39 706.82 1459.82 724.906C1474.16 741.954 1481.32 762.89 1481.32 787.782ZM1651.26 879.83H1621.62V759.002C1621.62 745.745 1617.63 735.407 1609.65 727.952C1601.67 720.53 1591.03 716.932 1577.77 717.225C1563.7 717.484 1550.3 722.086 1537.59 730.998V879.83H1507.95V727.337C1525.01 714.924 1540.7 706.82 1555.04 703.029C1568.56 699.495 1580.5 697.742 1590.78 697.742C1597.81 697.742 1604.43 698.427 1610.65 699.787C1622.3 702.477 1631.77 707.468 1639.06 714.794C1647.2 722.897 1651.26 732.617 1651.26 743.996V879.83Z" fill="#646464"/>
<path d="M367.995 607.603C352.747 607.672 338.184 608.973 325.368 611.24C287.615 617.904 280.761 631.857 280.761 657.584V691.564H369.971V702.89H247.283C221.355 702.89 198.654 718.465 191.554 748.092C183.362 782.053 183 803.244 191.554 838.704C197.895 865.1 213.037 883.907 238.965 883.907H269.638V843.173C269.638 813.745 295.114 787.785 325.368 787.785H414.469C439.276 787.785 459.075 767.375 459.075 742.479V657.587C459.075 633.423 438.68 615.271 414.472 611.24C399.147 608.69 383.247 607.533 367.995 607.603ZM319.752 634.932C328.968 634.932 336.49 642.574 336.49 651.974C336.49 661.338 328.968 668.909 319.755 668.909C310.506 668.909 303.013 661.338 303.013 651.974C303.013 642.574 310.506 634.932 319.752 634.932Z" fill="url(#paint0_linear_1008_40765)"/>
<path d="M470.202 702.89V742.48C470.202 773.174 444.164 799.008 414.473 799.008H325.369C300.961 799.008 280.762 819.887 280.762 844.314V929.213C280.762 953.374 301.786 967.586 325.369 974.519C353.606 982.815 380.686 984.315 414.469 974.519C436.931 968.018 459.076 954.94 459.076 929.213V895.233H369.972V883.907H503.68C529.608 883.907 539.27 865.831 548.287 838.704C557.599 810.776 557.203 783.918 548.287 748.092C541.879 722.299 529.641 702.89 503.68 702.89H470.202ZM420.086 917.884C429.335 917.884 436.828 925.459 436.828 934.823C436.828 944.223 429.335 951.864 420.086 951.864C410.869 951.864 403.35 944.223 403.35 934.823C403.35 925.459 410.869 917.884 420.086 917.884Z" fill="url(#paint1_linear_1008_40765)"/>
<path d="M1708.98 675.809H1714.18V643.231H1726.49V639.348H1696.67V643.231H1708.98V675.809ZM1731.09 675.809H1735.54V646.055L1745.17 675.802H1750.12L1760.16 646.158V675.805H1765V639.348H1758.59L1747.62 670.581L1738.26 639.348H1731.09L1731.09 675.809Z" fill="#646464"/>
<path opacity="0.444" d="M490.531 1032.23C490.531 1038.38 477.936 1044.27 455.516 1048.61C433.097 1052.96 402.69 1055.4 370.984 1055.4C339.278 1055.4 308.871 1052.96 286.452 1048.61C264.033 1044.27 251.438 1038.38 251.438 1032.23C251.438 1026.09 264.033 1020.19 286.452 1015.85C308.871 1011.5 339.278 1009.06 370.984 1009.06C402.69 1009.06 433.097 1011.5 455.516 1015.85C477.936 1020.19 490.531 1026.09 490.531 1032.23Z" fill="url(#paint2_radial_1008_40765)"/>
</g>
<defs>
<linearGradient id="paint0_linear_1008_40765" x1="185.273" y1="607.601" x2="390.876" y2="782.907" gradientUnits="userSpaceOnUse">
<stop stop-color="#5A9FD4"/>
<stop offset="1" stop-color="#306998"/>
</linearGradient>
<linearGradient id="paint1_linear_1008_40765" x1="417.942" y1="931.967" x2="344.199" y2="828.571" gradientUnits="userSpaceOnUse">
<stop stop-color="#FFD43B"/>
<stop offset="1" stop-color="#FFE873"/>
</linearGradient>
<radialGradient id="paint2_radial_1008_40765" cx="0" cy="0" r="1" gradientUnits="userSpaceOnUse" gradientTransform="translate(370.985 1032.23) rotate(-90) scale(23.1673 101.892)">
<stop stop-color="#B8B8B8" stop-opacity="0.498"/>
<stop offset="1" stop-color="#7F7F7F" stop-opacity="0"/>
</radialGradient>
<clipPath id="clip0_1008_40765">
<rect width="1582" height="468" fill="white" transform="translate(183 592)"/>
</clipPath>
</defs>
</svg>
